{"glyphs":{"0":{"ha":897,"x_min":0,"x_max":0,"o":"m 458 1103 b 432 1101 457 1101 449 1101 b 103 824 213 1088 103 994 l 103 415 b 243 49 103 304 183 171 b 578 -128 314 -75 389 -121 b 915 168 803 -115 915 -17 l 915 574 b 775 931 915 674 842 806 b 458 1101 711 1047 624 1094 z m 463 1071 b 764 818 664 1071 764 986 l 764 413 b 463 146 764 240 664 151 l 463 289 b 553 383 522 292 553 324 l 553 831 b 463 925 553 889 522 921 z m 493 585 b 524 638 493 619 503 638 l 524 383 b 493 333 524 360 514 343 z m 132 824 b 428 1071 132 983 231 1065 l 428 925 b 340 831 369 921 340 889 l 340 383 b 428 289 340 324 369 293 l 428 146 b 132 415 231 153 132 242 z "},"1":{"ha":574,"x_min":0,"x_max":0,"o":"m 276 1083 b 64 963 260 996 204 963 l 64 792 l 201 547 l 201 132 l 325 -108 l 588 -108 l 588 835 l 467 1083 z m 96 932 b 301 1051 217 932 286 972 l 435 1051 l 435 164 l 232 164 l 232 822 l 96 822 z "},"2":{"ha":867,"x_min":0,"x_max":0,"o":"m 224 529 b 96 314 175 479 131 408 l 96 132 l 219 -108 l 871 -108 l 871 96 l 760 315 b 888 596 844 383 888 478 b 840 776 886 651 874 713 l 751 944 b 454 1100 690 1060 615 1100 b 113 746 226 1100 113 982 z m 143 776 b 454 1069 143 972 247 1069 b 735 842 642 1069 735 993 b 650 614 735 746 707 671 b 486 500 644 608 592 571 b 371 346 421 456 381 406 l 138 346 b 286 547 167 422 215 490 b 544 808 399 622 544 700 b 453 929 544 889 514 929 b 342 776 374 929 346 897 z m 126 313 l 719 313 l 719 164 l 126 164 z "},"3":{"ha":839,"x_min":0,"x_max":0,"o":"m 399 1099 b 96 796 197 1083 96 982 l 96 763 l 219 519 l 293 519 l 321 464 l 315 468 l 90 468 b 525 -126 90 186 249 -97 l 550 -126 b 860 169 757 -114 860 -15 b 783 403 860 254 839 331 b 836 565 818 446 836 500 b 583 1058 836 703 685 1003 b 422 1099 543 1081 490 1089 z m 128 793 b 392 1068 128 972 213 1058 l 392 919 b 318 793 333 913 318 894 z m 431 1068 b 685 811 600 1063 685 976 b 596 626 685 731 656 669 b 710 421 672 589 710 521 b 432 147 710 244 617 153 l 432 293 b 524 406 493 301 524 339 b 321 551 524 518 488 551 l 321 697 b 503 819 472 697 503 725 b 431 919 503 879 479 913 z m 315 438 b 399 293 317 347 344 299 l 399 147 b 121 438 215 156 122 253 z "},"4":{"ha":874,"x_min":0,"x_max":0,"o":"m 436 1083 l 71 478 l 71 307 l 194 64 l 450 64 l 536 -108 l 786 -108 l 786 64 l 911 64 l 911 258 l 786 507 l 786 835 l 665 1083 z m 446 1051 l 636 1051 l 636 475 l 760 475 l 760 338 l 636 338 l 636 164 l 443 164 l 443 1046 z m 410 988 l 410 715 l 268 475 l 410 475 l 410 338 l 100 338 l 100 469 z "},"5":{"ha":833,"x_min":0,"x_max":0,"o":"m 128 1083 l 103 535 l 129 485 l 99 485 b 528 -128 99 144 254 -128 l 560 -126 b 851 139 754 -107 851 -18 l 851 318 b 731 629 851 422 790 547 l 826 629 l 826 835 l 704 1083 z m 156 1051 l 674 1051 l 674 904 l 318 904 l 313 722 b 410 775 333 751 369 765 l 410 639 b 306 565 351 632 317 607 l 135 565 z m 443 778 b 701 560 615 776 701 703 l 701 383 b 443 147 701 238 615 160 l 443 289 b 515 399 492 297 515 333 l 515 567 b 443 639 515 610 492 633 z m 313 453 b 410 286 317 349 318 304 l 410 146 b 129 453 222 146 129 249 z "},"6":{"ha":879,"x_min":0,"x_max":0,"o":"m 103 404 b 242 40 103 289 182 163 b 547 -128 308 -82 379 -117 l 574 -128 b 899 154 790 -114 899 -19 l 899 286 b 818 513 899 371 896 361 l 899 513 b 872 722 899 613 892 685 b 446 1101 758 944 733 1085 b 103 840 217 1088 103 1000 z m 461 1071 b 747 839 651 1067 747 989 l 747 788 l 547 788 b 461 922 547 904 528 915 z m 132 840 b 429 1071 132 990 231 1067 l 429 922 b 333 842 365 921 333 893 l 333 664 b 518 722 382 703 443 722 b 747 533 671 722 747 660 l 747 401 b 454 146 747 236 650 151 l 454 292 b 544 381 514 293 544 324 l 544 519 b 456 583 544 563 515 583 b 333 529 390 583 350 565 l 333 379 b 421 292 333 326 363 297 l 421 146 b 132 404 228 149 132 235 z "},"7":{"ha":768,"x_min":0,"x_max":0,"o":"m 89 1083 l 89 872 l 213 629 l 339 629 l 175 132 l 300 -108 l 561 -108 l 807 633 l 807 835 l 688 1083 z m 119 1051 l 657 1051 l 657 904 l 119 904 z m 453 875 l 647 875 l 418 164 l 217 164 z "},"8":{"ha":844,"x_min":0,"x_max":0,"o":"m 421 1099 b 122 811 222 1083 122 988 b 183 624 122 729 151 679 b 97 421 126 575 97 507 b 235 49 97 300 175 168 b 543 -126 306 -75 375 -115 b 868 169 760 -114 868 -15 b 790 403 868 232 842 310 b 843 565 825 446 843 500 b 703 932 843 681 769 803 b 421 1099 647 1042 586 1088 z m 438 1068 b 693 811 608 1063 693 976 b 604 626 693 731 664 669 b 715 421 678 589 715 519 b 439 147 715 244 624 153 l 439 293 b 529 406 499 301 529 339 b 439 547 529 485 499 532 l 439 704 b 510 819 486 719 510 757 b 439 919 510 879 486 913 z m 406 919 b 333 819 357 913 333 879 b 406 703 333 757 357 718 l 406 547 b 314 406 344 533 314 486 b 404 293 314 339 344 301 l 404 147 b 128 421 219 153 128 244 b 242 626 128 521 165 589 b 153 811 182 669 153 731 b 406 1068 153 976 238 1063 z "},"9":{"ha":879,"x_min":0,"x_max":0,"o":"m 100 682 b 181 460 100 604 143 533 l 100 460 b 139 233 100 301 99 310 l 235 38 b 553 -128 328 -129 490 -128 b 897 131 782 -115 897 -29 l 897 567 b 768 921 897 693 819 810 b 440 1100 701 1039 642 1089 b 100 817 214 1100 100 1006 z m 131 817 b 424 1069 131 982 228 1065 l 424 925 b 332 835 363 924 332 893 l 332 697 b 421 632 332 654 361 632 b 544 686 486 632 528 650 l 544 839 b 456 924 544 892 515 919 l 456 1069 b 746 813 649 1067 746 981 l 746 375 b 447 146 746 225 646 149 l 447 293 b 544 374 513 294 544 321 l 544 553 b 361 494 494 514 433 494 b 131 682 207 494 131 557 z m 131 429 l 332 429 b 418 294 332 313 346 299 l 418 146 b 131 379 226 149 131 226 z "}," ":{"ha":542,"x_min":0,"x_max":0,"o":""},"!":{"ha":479,"x_min":0,"x_max":0,"o":"m 99 1083 l 149 383 l 167 354 l 108 354 l 108 132 l 235 -108 l 490 -108 l 490 106 l 453 178 l 500 835 l 379 1083 z m 132 1051 l 346 1051 l 300 414 l 178 414 z m 140 324 l 338 324 l 338 164 l 132 164 z "},"\"":{"ha":617,"x_min":0,"x_max":0,"o":"m 106 1106 l 106 914 l 135 701 l 258 458 l 413 458 l 419 525 l 454 458 l 607 458 l 636 665 l 636 858 l 515 1106 z m 332 1075 l 483 1075 l 483 915 b 458 733 479 881 474 829 l 357 733 l 332 919 z m 138 1075 l 286 1075 l 286 915 l 264 733 l 161 733 l 138 919 z "},"#":{"ha":768,"x_min":0,"x_max":0,"o":"m 164 864 l 64 549 l 132 418 l 111 372 l 243 131 l 549 131 l 607 306 l 725 306 l 824 615 l 758 746 l 771 790 l 650 1036 l 343 1036 l 283 864 z m 186 833 l 304 833 l 365 1006 l 439 1006 l 382 833 l 472 833 l 533 1006 l 608 1006 l 550 833 l 661 833 l 632 747 l 524 747 l 524 751 l 492 664 l 610 664 l 582 578 l 467 578 l 404 406 l 329 406 l 389 578 l 297 578 l 235 406 l 161 406 l 219 578 l 106 578 l 135 664 l 246 664 l 246 658 l 276 747 l 156 747 z m 353 751 l 322 663 l 418 663 l 418 658 l 446 747 l 353 747 z "},"$":{"ha":710,"x_min":0,"x_max":0,"o":"m 306 1083 l 306 1006 b 96 804 165 985 96 918 b 221 518 96 763 158 636 l 79 518 b 113 342 79 461 85 397 l 224 121 b 383 10 253 61 297 32 l 429 -81 l 529 -81 l 529 0 b 750 200 676 18 750 85 b 699 358 750 240 733 293 b 621 508 692 372 625 493 l 744 508 b 694 690 744 564 728 625 l 607 860 b 451 996 563 944 532 974 l 410 1083 z m 407 978 b 593 783 531 963 593 897 l 440 782 b 407 851 439 815 428 839 z m 307 857 b 275 801 286 849 275 831 b 307 747 275 781 286 763 l 307 585 b 126 803 144 706 126 722 b 307 978 126 906 186 964 z m 335 1053 l 379 1053 l 379 194 l 335 194 z m 407 676 b 597 446 500 606 597 553 b 407 274 597 342 533 285 l 407 394 b 450 444 436 403 450 419 b 407 513 450 479 436 501 z m 254 486 b 307 396 257 442 275 411 l 307 275 b 108 486 175 290 108 361 z "},"%":{"ha":1132,"x_min":0,"x_max":0,"o":"m 314 1099 b 92 914 165 1086 92 1025 l 92 788 b 197 517 92 714 153 606 b 304 379 235 443 267 397 l 132 132 l 257 -108 l 451 -108 l 629 146 b 921 -128 696 3 729 -128 b 1036 -119 931 -128 969 -125 b 1158 68 1118 -114 1158 -51 l 1158 194 b 942 597 1158 279 1026 558 l 1108 836 l 989 1083 l 793 1083 l 621 836 l 556 972 b 343 1100 507 1063 453 1089 l 343 1101 b 332 1100 342 1100 339 1100 b 314 1101 321 1100 315 1100 z m 824 597 b 1008 439 940 593 1008 535 l 1008 314 b 824 146 1008 207 947 151 l 824 250 b 865 292 851 254 865 268 l 865 458 b 824 492 865 475 851 486 z m 343 1069 b 529 911 467 1065 529 1013 l 529 786 b 343 617 529 679 467 622 l 343 725 b 383 764 369 729 383 743 l 383 932 b 343 963 383 950 369 960 z m 808 1053 l 931 1053 l 313 164 l 189 164 z m 600 443 b 790 597 600 539 664 590 l 790 492 b 746 460 761 488 746 476 l 746 292 b 790 250 746 268 761 254 l 790 146 b 600 317 664 149 600 206 z m 124 914 b 313 1069 124 1014 186 1065 l 313 963 b 267 932 282 960 267 950 l 267 764 b 313 725 267 740 282 728 l 313 617 b 124 788 186 622 124 679 z "},"&":{"ha":994,"x_min":0,"x_max":0,"o":"m 699 964 b 444 1100 647 1065 589 1100 b 161 833 225 1100 161 1011 b 235 640 161 782 168 776 b 92 397 139 550 92 469 b 332 -86 92 250 249 -36 b 525 -129 378 -114 440 -129 b 763 -50 619 -129 699 -103 b 936 -139 822 -87 881 -115 l 1013 63 l 964 157 b 1033 379 1010 233 1033 308 l 913 625 l 833 625 b 810 743 833 661 825 700 z m 664 485 b 704 593 682 508 696 544 l 881 593 b 793 382 881 525 851 456 z m 444 758 b 517 882 493 793 517 833 b 439 956 517 931 490 956 b 356 881 383 956 356 931 b 853 297 356 754 597 479 l 796 144 b 511 367 707 179 617 254 b 276 650 474 406 399 499 b 192 874 219 721 192 790 b 440 1069 192 1004 275 1069 b 682 875 601 1069 682 1004 b 526 632 682 788 631 707 z m 354 500 b 313 418 326 476 313 449 b 421 306 313 343 349 306 b 507 331 450 306 479 314 l 622 217 b 407 144 565 168 494 144 b 124 397 218 144 124 229 b 261 625 124 467 169 543 z "},"'":{"ha":418,"x_min":0,"x_max":0,"o":"m 106 1106 l 106 914 b 135 701 106 869 124 779 l 258 458 l 413 458 b 439 665 424 536 439 621 l 439 858 l 318 1100 l 318 1106 z m 138 1075 l 286 1075 l 286 915 l 264 733 l 161 733 l 138 919 z "},"(":{"ha":422,"x_min":0,"x_max":0,"o":"m 251 1119 b 78 529 121 900 78 721 b 221 14 78 350 132 188 l 357 -251 l 467 -204 b 325 307 372 -11 325 158 b 467 792 325 464 372 626 l 346 1036 z m 307 1029 b 175 557 219 875 175 717 b 304 54 175 392 218 224 l 249 29 b 107 550 154 208 107 382 b 260 1074 107 728 158 903 z "},")":{"ha":422,"x_min":0,"x_max":0,"o":"m 75 1061 b 217 550 169 876 217 706 b 75 65 217 389 169 228 l 201 -179 l 292 -261 b 467 292 408 -65 467 118 b 382 704 467 425 436 560 b 189 1111 360 764 296 899 z m 175 1074 b 314 553 268 894 314 721 b 163 29 314 371 264 197 l 114 71 b 246 547 201 225 246 385 b 118 1046 246 704 203 871 z "},"*":{"ha":618,"x_min":0,"x_max":0,"o":"m 100 960 l 149 865 l 71 863 l 99 715 l 286 386 l 419 340 l 453 476 l 526 361 l 632 450 l 582 551 l 669 558 l 524 946 l 492 936 l 451 1026 l 314 1078 l 286 944 l 206 1057 z m 146 960 l 203 1011 l 304 871 l 338 1036 l 410 1010 l 339 856 l 499 907 l 513 831 l 346 819 l 468 697 l 411 649 l 317 793 l 275 624 l 204 649 l 282 807 l 122 756 l 107 833 l 275 842 z "},"+":{"ha":706,"x_min":0,"x_max":0,"o":"m 244 808 l 244 631 l 71 631 l 71 447 l 196 203 l 276 203 l 371 17 l 585 17 l 585 203 l 756 203 l 756 383 l 633 631 l 550 631 l 463 808 z m 276 778 l 432 778 l 432 600 l 604 600 l 604 478 l 432 478 l 432 290 l 276 290 l 276 478 l 103 478 l 103 600 l 276 600 z "},",":{"ha":440,"x_min":0,"x_max":0,"o":"m 107 347 l 107 132 l 128 96 l 81 0 l 206 -243 l 363 -243 l 472 -86 l 472 99 l 353 347 z m 138 315 l 322 315 l 322 169 l 225 32 l 131 32 l 197 164 l 138 164 z "},"-":{"ha":639,"x_min":0,"x_max":0,"o":"m 107 508 l 107 354 l 232 111 l 653 111 l 653 261 l 532 508 z m 138 478 l 501 478 l 501 386 l 138 386 z "},".":{"ha":472,"x_min":0,"x_max":0,"o":"m 107 333 l 107 132 l 232 -108 l 486 -108 l 486 86 l 365 333 z m 138 304 l 333 304 l 333 164 l 138 164 z "},"/":{"ha":782,"x_min":0,"x_max":0,"o":"m 624 1103 l 39 19 l 164 -224 l 281 -224 l 864 856 l 743 1103 z m 642 1071 l 693 1071 l 139 50 l 90 50 z "},":":{"ha":438,"x_min":0,"x_max":0,"o":"m 107 585 l 107 132 l 232 -108 l 468 -108 l 468 338 l 347 585 z m 138 553 l 315 553 l 315 399 l 138 399 z m 138 317 l 315 317 l 315 164 l 138 164 z "},";":{"ha":439,"x_min":0,"x_max":0,"o":"m 104 592 l 104 132 l 128 94 l 79 -3 l 206 -246 l 361 -246 l 467 -83 l 467 343 l 346 592 z m 136 560 l 314 560 l 314 403 l 136 403 z m 136 321 l 314 321 l 314 169 l 224 26 l 129 26 l 196 164 l 136 164 z "},"<":{"ha":539,"x_min":0,"x_max":0,"o":"m 63 638 l 63 500 l 186 254 l 568 -22 l 568 168 l 454 397 l 568 479 l 568 671 l 450 921 z m 92 622 l 418 860 l 418 739 l 175 568 l 418 397 l 418 281 l 92 517 z "},"=":{"ha":782,"x_min":0,"x_max":0,"o":"m 107 735 l 107 317 l 232 74 l 822 74 l 822 488 l 701 735 z m 138 704 l 669 704 l 669 585 l 138 585 z m 138 467 l 669 467 l 669 349 l 138 349 z "},">":{"ha":556,"x_min":0,"x_max":0,"o":"m 107 919 l 107 725 l 224 494 l 107 414 l 107 218 l 232 -24 l 615 254 l 615 390 l 493 638 z m 138 858 l 463 622 l 463 517 l 138 278 l 138 399 l 382 569 l 138 739 z "},"?":{"ha":786,"x_min":0,"x_max":0,"o":"m 232 561 l 299 561 b 275 419 283 521 276 475 b 307 361 286 397 297 379 l 260 361 l 260 132 l 383 -108 l 631 -108 l 631 113 b 678 329 631 235 646 307 b 825 575 811 447 825 478 b 688 936 825 685 754 806 b 399 1100 632 1043 565 1089 b 78 836 185 1088 78 999 z m 411 1068 b 674 824 586 1063 674 981 b 468 486 672 665 469 592 l 467 419 l 307 419 b 354 606 308 496 324 558 b 439 697 356 608 383 639 b 486 810 471 729 486 767 b 411 928 486 883 461 922 z m 107 839 b 382 1068 107 990 199 1067 l 382 929 b 282 839 314 925 281 894 z m 290 331 l 479 331 l 479 164 l 290 164 z "},"@":{"ha":818,"x_min":0,"x_max":0,"o":"m 407 978 b 92 593 221 956 92 792 b 349 68 92 446 253 135 b 550 1 397 33 467 1 b 646 8 561 1 592 4 b 842 160 714 13 779 64 l 793 258 b 842 424 825 313 842 368 b 793 613 842 475 825 538 l 701 785 b 435 978 639 901 557 965 z m 438 947 b 690 674 586 943 690 822 b 504 421 690 557 601 421 b 436 461 467 421 444 435 b 354 422 410 435 383 422 b 235 588 283 422 235 493 l 235 593 l 314 593 b 367 494 314 528 332 494 b 453 593 406 494 435 528 l 526 593 b 513 515 517 543 513 517 b 521 500 513 508 515 504 b 624 676 582 515 624 603 b 438 875 624 783 544 871 z m 238 632 b 397 810 256 725 331 810 b 483 768 432 810 461 796 l 490 801 l 567 801 l 535 632 l 460 632 b 461 653 461 633 461 640 b 404 739 461 710 442 739 b 318 632 371 739 331 692 z m 451 350 b 608 421 517 356 569 379 l 694 421 b 451 278 638 331 557 283 z m 404 875 b 189 597 276 864 189 742 b 407 353 189 446 261 364 l 407 278 b 122 592 235 289 122 407 b 404 947 122 786 233 936 z "},"A":{"ha":893,"x_min":0,"x_max":0,"o":"m 293 1083 l 51 132 l 56 132 l 178 -108 l 440 -108 l 483 75 l 597 75 l 693 -108 l 965 -108 l 726 835 l 604 1083 z m 317 1051 l 581 1051 l 804 164 l 592 164 l 550 350 l 374 350 l 404 496 l 521 496 l 451 858 l 294 164 l 92 164 z "},"B":{"ha":893,"x_min":0,"x_max":0,"o":"m 107 1083 l 107 132 l 232 -108 l 578 -108 b 917 206 835 -108 917 -3 b 844 386 917 249 910 258 b 904 567 885 424 904 483 b 768 917 904 667 826 800 b 443 1083 708 1033 618 1083 z m 379 1051 l 443 1051 b 753 815 650 1051 753 972 b 632 618 753 699 713 633 b 767 407 722 597 767 528 b 456 164 767 244 663 164 l 379 164 l 379 313 b 558 424 539 313 558 335 b 379 543 558 517 533 543 l 379 693 b 543 799 525 693 543 710 b 379 904 543 882 525 904 z m 138 1051 l 340 1051 l 340 164 l 138 164 z "},"C":{"ha":892,"x_min":0,"x_max":0,"o":"m 103 404 b 238 56 103 296 181 163 b 558 -128 307 -78 392 -121 l 574 -129 l 574 -128 b 915 157 801 -118 915 -24 l 915 281 l 822 468 l 915 468 b 890 710 915 582 907 663 b 650 1069 825 842 761 1014 b 453 1108 610 1090 543 1103 b 103 831 219 1093 103 1000 z m 463 1071 b 764 825 664 1071 764 989 l 764 742 l 553 742 b 556 811 553 756 556 796 b 463 925 556 885 525 922 z m 463 289 b 557 407 525 292 557 331 b 553 496 557 426 553 478 l 764 496 l 764 403 b 463 146 764 238 664 151 z m 132 828 b 421 1071 132 981 228 1061 l 421 925 b 340 836 367 917 340 888 l 340 375 b 421 290 340 322 367 294 l 421 146 b 132 406 228 154 132 240 z "},"D":{"ha":896,"x_min":0,"x_max":0,"o":"m 107 1083 l 107 132 l 232 -108 l 599 -108 b 914 171 808 -108 914 -15 l 914 557 b 775 919 914 657 842 793 b 479 1083 713 1038 640 1083 z m 372 1051 l 479 1051 b 763 803 668 1051 763 968 l 763 418 b 476 164 763 249 667 164 l 372 164 l 372 314 b 551 394 526 314 551 324 l 551 810 b 372 900 551 883 528 900 z m 138 1051 l 340 1051 l 340 164 l 138 164 z "},"E":{"ha":754,"x_min":0,"x_max":0,"o":"m 107 1083 l 107 132 l 232 -108 l 793 -108 l 793 100 l 704 278 l 776 278 l 776 485 l 704 629 l 793 629 l 793 835 l 671 1083 z m 374 1051 l 640 1051 l 640 904 l 374 904 z m 374 699 l 625 699 l 625 551 l 374 551 z m 138 1051 l 343 1051 l 343 164 l 138 164 z m 374 317 l 640 317 l 640 164 l 374 164 z "},"F":{"ha":744,"x_min":0,"x_max":0,"o":"m 107 1083 l 107 132 l 232 -108 l 494 -108 l 494 278 l 776 278 l 776 485 l 704 629 l 793 629 l 793 835 l 671 1083 z m 374 1051 l 640 1051 l 640 904 l 374 904 z m 374 699 l 625 699 l 625 551 l 374 551 z m 138 1051 l 343 1051 l 343 164 l 138 164 z "},"G":{"ha":885,"x_min":0,"x_max":0,"o":"m 424 1100 b 103 831 210 1092 103 1001 l 103 407 b 242 35 103 285 186 153 b 549 -124 313 -87 386 -124 l 550 -126 b 733 -65 656 -126 689 -114 l 763 -108 l 904 -108 l 904 581 b 767 938 904 685 826 811 b 460 1101 711 1054 618 1100 z m 454 1071 b 751 825 656 1071 751 993 l 751 746 l 556 746 l 556 813 b 454 928 556 892 526 924 z m 439 689 l 751 689 l 751 164 l 656 164 l 614 228 b 464 147 579 174 529 147 l 454 147 l 454 289 b 553 378 519 290 553 321 l 553 500 b 515 556 553 532 540 550 l 439 556 z m 132 831 b 422 1071 132 990 229 1071 l 422 925 b 340 839 368 921 340 892 l 340 378 b 422 289 340 324 368 294 l 422 149 b 132 410 229 149 132 236 z "},"H":{"ha":890,"x_min":0,"x_max":0,"o":"m 107 1083 l 107 132 l 232 -108 l 493 -108 l 493 276 l 517 276 l 517 132 l 640 -108 l 904 -108 l 904 835 l 783 1083 l 517 1083 l 517 729 l 493 729 l 493 835 l 372 1083 z m 547 1051 l 753 1051 l 753 164 l 547 164 l 547 550 l 379 550 l 379 699 l 547 699 z m 138 1051 l 342 1051 l 342 164 l 138 164 z "},"I":{"ha":486,"x_min":0,"x_max":0,"o":"m 107 1083 l 107 132 l 232 -108 l 499 -108 l 499 835 l 378 1083 z m 138 1051 l 347 1051 l 347 164 l 138 164 z "},"J":{"ha":597,"x_min":0,"x_max":0,"o":"m 226 1083 l 226 381 b 78 350 226 360 176 350 l 78 132 l 203 -108 l 331 -108 b 614 169 519 -108 614 -15 l 614 835 l 493 1083 z m 257 1051 l 461 1051 l 461 418 b 208 164 461 249 376 164 l 107 164 l 107 321 b 257 379 207 321 257 340 z "},"K":{"ha":936,"x_min":0,"x_max":0,"o":"m 107 1083 l 107 132 l 232 -108 l 494 -108 l 494 168 l 529 221 l 696 -108 l 978 -108 l 706 458 l 968 835 l 849 1083 l 557 1083 l 454 914 l 374 1083 z m 575 1051 l 790 1051 l 576 744 l 494 914 z m 468 876 l 810 164 l 575 164 l 419 535 l 378 471 l 378 726 z m 138 1051 l 343 1051 l 343 164 l 138 164 z "},"L":{"ha":718,"x_min":0,"x_max":0,"o":"m 107 1083 l 107 132 l 232 -108 l 768 -108 l 768 96 l 647 338 l 647 343 l 493 343 l 493 835 l 372 1083 z m 138 1051 l 342 1051 l 342 164 l 138 164 z m 381 313 l 617 313 l 617 164 l 381 164 z "},"M":{"ha":1124,"x_min":0,"x_max":0,"o":"m 107 1083 l 107 132 l 232 -108 l 481 -108 l 481 156 l 613 -108 l 751 -108 l 804 54 l 888 -108 l 1139 -108 l 1139 835 l 1017 1083 l 688 1083 l 590 690 l 435 1083 z m 793 1051 l 986 1051 l 986 164 l 793 164 z m 350 1051 l 410 1051 l 561 440 l 711 1051 l 769 1051 l 769 650 l 607 164 l 510 164 l 350 657 z m 138 1051 l 329 1051 l 329 164 l 138 164 z "},"N":{"ha":931,"x_min":0,"x_max":0,"o":"m 107 1083 l 107 132 l 232 -108 l 479 -108 l 479 343 l 694 -108 l 942 -108 l 942 835 l 822 1083 l 568 1083 l 568 621 l 358 1083 z m 599 1051 l 792 1051 l 792 164 l 599 164 z m 353 981 l 574 528 l 574 224 l 353 672 z m 138 1051 l 329 1051 l 329 164 l 138 164 z "},"O":{"ha":897,"x_min":0,"x_max":0,"o":"m 103 415 b 243 49 103 304 183 171 b 578 -128 314 -75 389 -121 b 915 168 803 -115 915 -17 l 915 574 b 775 931 915 674 842 806 b 458 1101 711 1047 624 1094 b 103 824 221 1088 103 994 z m 463 1071 b 764 818 664 1071 764 986 l 764 413 b 463 146 764 240 664 151 l 463 289 b 553 383 522 292 553 324 l 553 831 b 463 925 553 889 522 921 z m 493 585 b 524 638 493 608 503 625 l 524 383 b 493 333 524 360 514 343 z m 132 824 b 428 1071 132 983 231 1065 l 428 925 b 340 831 369 921 340 889 l 340 383 b 428 289 340 324 369 293 l 428 146 b 132 415 231 153 132 242 z "},"P":{"ha":853,"x_min":0,"x_max":0,"o":"m 107 1083 l 107 132 l 232 -108 l 493 -108 l 493 268 b 904 567 808 268 904 353 b 768 917 904 675 831 792 b 443 1083 708 1033 624 1083 z m 379 1051 l 443 1051 b 753 815 650 1051 753 972 b 447 543 753 633 651 543 l 379 543 l 379 693 b 543 799 525 693 543 710 b 379 904 543 882 525 904 z m 138 1051 l 340 1051 l 340 164 l 138 164 z "},"Q":{"ha":889,"x_min":0,"x_max":0,"o":"m 454 1071 b 756 818 656 1069 756 986 l 756 413 b 542 154 756 267 685 181 l 542 147 l 747 147 l 747 15 l 557 15 b 454 124 489 15 454 51 l 454 289 b 544 383 514 293 544 325 l 544 831 b 454 925 544 889 514 921 z m 485 585 b 513 638 485 607 494 625 l 513 383 b 485 326 513 357 503 338 z m 124 824 b 419 1071 124 983 222 1065 l 419 925 b 332 831 361 921 332 889 l 332 383 b 419 289 332 324 361 293 l 419 146 b 124 415 222 151 124 242 z m 450 1103 b 424 1101 449 1101 440 1101 b 92 824 203 1086 92 993 l 92 415 b 229 56 92 315 169 178 b 526 -126 299 -72 371 -111 b 679 -258 593 -253 599 -258 l 900 -258 l 900 -68 l 865 0 b 907 168 893 43 907 99 l 907 574 b 768 928 907 672 833 800 b 450 1101 708 1044 626 1094 z "},"R":{"ha":893,"x_min":0,"x_max":0,"o":"m 107 1083 l 107 132 l 232 -108 l 493 -108 l 493 268 l 511 268 b 539 132 511 207 521 161 l 540 132 b 663 -108 581 43 629 -64 l 938 -108 b 900 -1 913 -60 900 -25 l 900 160 b 842 383 900 265 901 268 b 904 567 883 419 904 481 b 768 917 904 667 826 800 b 443 1083 708 1033 618 1083 z m 379 1051 l 443 1051 b 753 815 650 1051 753 972 b 632 618 753 699 713 633 b 750 407 711 600 750 531 l 747 379 b 744 299 746 361 744 333 b 763 164 744 226 750 182 l 556 164 b 542 243 546 197 542 225 l 542 429 b 447 543 542 506 510 543 l 379 543 l 379 693 b 543 799 528 693 543 711 b 379 904 543 885 525 904 z m 138 1051 l 340 1051 l 340 164 l 138 164 z "},"S":{"ha":907,"x_min":0,"x_max":0,"o":"m 451 1097 b 113 840 225 1088 113 1003 b 281 456 113 783 213 568 l 92 456 b 300 -22 92 250 283 -4 b 575 -129 361 -90 446 -126 b 933 126 814 -122 933 -37 b 747 535 933 183 799 478 l 933 535 l 810 908 b 451 1099 714 1079 629 1092 z m 481 1067 b 775 810 676 1060 775 974 l 568 810 b 481 915 568 875 542 908 z m 431 917 b 340 835 371 915 340 888 b 657 574 340 800 444 724 b 782 372 740 514 782 446 b 481 144 782 224 682 149 l 481 299 b 581 364 547 299 581 321 b 432 517 581 386 531 438 b 251 649 428 521 368 560 b 143 839 179 703 143 765 b 431 1067 143 983 239 1060 z m 318 426 b 432 299 321 350 358 307 l 432 144 b 122 426 225 153 122 247 z "},"T":{"ha":857,"x_min":0,"x_max":0,"o":"m 82 1083 l 82 872 l 206 629 l 293 629 l 293 132 l 419 -108 l 682 -108 l 682 629 l 896 629 l 896 835 l 775 1083 z m 113 1051 l 743 1051 l 743 904 l 113 904 z m 324 867 l 529 867 l 529 164 l 324 164 z "},"U":{"ha":901,"x_min":0,"x_max":0,"o":"m 104 1083 l 104 415 b 353 -79 104 267 257 -17 b 558 -128 401 -111 464 -128 b 917 168 797 -128 917 -29 l 917 835 l 799 1083 l 525 1083 l 525 383 b 494 326 525 357 515 338 l 494 835 l 374 1083 z m 556 1051 l 767 1051 l 767 413 b 467 146 767 240 667 151 l 467 289 b 556 383 526 292 556 324 z m 135 1051 l 343 1051 l 343 383 b 429 289 343 325 372 293 l 429 146 b 135 415 233 153 135 243 z "},"V":{"ha":872,"x_min":0,"x_max":0,"o":"m 49 1083 l 313 132 l 436 -108 l 693 -108 l 947 835 l 826 1083 l 558 1083 l 479 696 l 415 883 l 317 1083 z m 583 1051 l 788 1051 l 544 164 l 464 488 z m 90 1051 l 293 1051 l 503 164 l 335 164 z "},"W":{"ha":1211,"x_min":0,"x_max":0,"o":"m 51 1083 l 283 132 l 407 -108 l 614 -108 l 688 224 l 706 132 l 831 -108 l 1047 -108 l 1271 835 l 1151 1083 l 890 1083 l 839 813 l 713 1083 l 490 1083 l 436 836 l 315 1083 z m 915 1051 l 1111 1051 l 913 253 l 831 608 z m 517 1051 l 688 1051 l 889 164 l 731 164 l 601 779 l 485 240 l 414 604 z m 92 1051 l 289 1051 l 456 164 l 308 164 z "},"X":{"ha":988,"x_min":0,"x_max":0,"o":"m 79 1083 l 338 604 l 75 132 l 203 -108 l 486 -108 l 601 140 l 746 -108 l 1033 -108 l 761 396 l 1013 835 l 893 1083 l 604 1083 l 499 856 l 369 1083 z m 624 1051 l 840 1051 l 617 661 l 521 831 z m 132 1051 l 350 1051 l 860 164 l 624 164 z m 358 582 l 458 411 l 350 164 l 129 164 z "},"Y":{"ha":922,"x_min":0,"x_max":0,"o":"m 60 1083 l 331 490 l 331 132 l 454 -108 l 718 -108 l 718 285 l 981 835 l 863 1083 l 581 1083 l 469 818 l 340 1083 z m 600 1051 l 813 1051 l 567 539 l 567 164 l 361 164 l 361 478 z m 107 1051 l 321 1051 l 436 760 l 346 539 z "},"Z":{"ha":839,"x_min":0,"x_max":0,"o":"m 135 1083 l 135 864 l 274 597 l 104 322 l 104 132 l 228 -108 l 876 -108 l 876 104 l 756 350 l 690 350 l 876 653 l 876 835 l 756 1083 z m 475 865 l 699 865 l 383 350 l 157 350 z m 135 321 l 726 321 l 726 164 l 135 164 z m 167 1051 l 726 1051 l 726 893 l 167 893 z "},"[":{"ha":421,"x_min":0,"x_max":0,"o":"m 107 1103 l 107 22 l 232 -221 l 478 -221 l 478 -104 l 361 132 l 361 733 l 478 733 l 478 856 l 357 1103 z m 138 1071 l 325 1071 l 325 1008 l 208 1008 l 208 113 l 325 113 l 325 51 l 138 51 z "},"\\":{"ha":790,"x_min":0,"x_max":0,"o":"m 39 1103 l 754 -224 l 879 -224 l 167 1103 z m 90 1071 l 147 1071 l 699 50 l 640 50 z "},"]":{"ha":422,"x_min":0,"x_max":0,"o":"m 64 1103 l 64 981 l 67 981 l 181 751 l 181 147 l 64 147 l 64 22 l 188 -221 l 435 -221 l 435 856 l 314 1103 z m 96 1071 l 283 1071 l 283 51 l 96 51 l 96 118 l 213 118 l 213 1013 l 96 1013 z "},"^":{"ha":771,"x_min":0,"x_max":0,"o":"m 324 1053 l 49 667 l 175 424 l 349 424 l 508 667 l 667 424 l 842 424 l 722 667 l 447 1053 z m 340 1022 l 431 1022 l 663 699 l 560 699 l 386 965 l 210 699 l 107 699 z "},"_":{"ha":892,"x_min":0,"x_max":0,"o":"m 49 60 l 49 -106 l 172 -350 l 971 -350 l 971 -186 l 850 60 z m 79 31 l 819 31 l 819 -75 l 79 -75 z "},"`":{"ha":525,"x_min":0,"x_max":0,"o":"m -3 1265 l 3 1261 l 124 1019 l 415 825 l 593 825 l 471 1068 l 475 1068 l 318 1265 z m 97 1236 l 304 1236 l 413 1100 l 301 1100 z "},"a":{"ha":828,"x_min":0,"x_max":0,"o":"m 128 561 l 164 492 b 96 346 118 451 96 403 b 131 208 96 300 107 254 l 240 -10 b 461 -118 276 -82 344 -118 b 600 -75 514 -118 560 -104 b 622 -108 607 -87 615 -99 l 872 -108 b 825 185 840 -46 825 51 l 825 276 b 826 350 825 308 826 333 b 694 685 826 435 761 557 b 431 817 643 781 581 817 b 128 593 229 817 128 742 z m 157 592 b 431 786 157 721 249 786 b 676 601 594 786 676 725 b 674 379 676 453 675 379 b 699 164 676 260 685 188 l 513 164 b 488 250 496 188 488 215 l 488 593 b 424 654 488 633 467 654 b 342 592 369 654 343 633 z m 447 453 b 315 361 360 431 315 400 b 372 286 315 311 335 286 b 447 297 397 286 422 290 l 447 183 b 340 156 421 165 385 156 b 128 340 199 156 128 217 b 447 569 128 465 235 542 z "},"b":{"ha":774,"x_min":0,"x_max":0,"o":"m 107 1083 l 107 132 l 232 -108 l 475 -108 l 475 -82 b 618 -118 521 -106 569 -118 b 815 115 750 -118 815 -40 l 815 321 b 674 693 815 432 743 561 b 485 815 625 786 581 815 l 353 1083 z m 354 750 b 485 785 386 774 429 785 b 663 564 603 785 663 711 l 663 364 b 494 156 663 225 607 156 b 354 193 443 156 396 168 l 354 297 b 399 281 368 286 383 281 b 472 338 447 281 472 300 l 472 575 b 397 658 472 631 447 658 b 354 642 379 658 365 653 z m 138 1051 l 322 1051 l 322 164 l 138 164 z "},"c":{"ha":786,"x_min":0,"x_max":0,"o":"m 100 372 b 225 47 100 275 172 156 b 515 -126 283 -74 360 -119 b 811 122 713 -111 811 -29 l 811 339 b 699 632 811 417 743 540 b 394 817 632 765 551 806 b 100 576 199 817 100 736 z m 413 786 b 661 574 578 782 661 711 l 661 517 l 472 517 b 413 653 472 635 468 646 z m 413 282 b 472 419 464 289 472 308 l 661 419 l 661 371 b 413 149 661 231 578 157 z m 131 576 b 375 786 131 711 213 782 l 375 653 b 318 582 338 647 318 624 l 318 361 b 375 282 318 315 338 289 l 375 149 b 131 372 213 154 131 229 z "},"d":{"ha":774,"x_min":0,"x_max":0,"o":"m 108 564 b 289 785 108 711 168 785 b 419 750 344 785 388 774 l 419 642 b 375 658 406 653 390 658 b 299 575 324 658 299 631 l 299 338 b 374 281 299 300 324 281 b 419 297 390 281 406 286 l 419 193 b 276 156 378 168 331 156 b 108 364 164 156 108 225 z m 451 1051 l 636 1051 l 636 164 l 451 164 z m 419 1083 l 419 783 b 292 815 379 804 336 815 b 79 565 150 815 79 732 l 79 361 b 119 200 79 301 92 254 l 232 -25 b 399 -118 261 -87 317 -118 b 532 -87 447 -118 492 -108 l 544 -108 l 786 -108 l 786 835 l 665 1083 z "},"e":{"ha":788,"x_min":0,"x_max":0,"o":"m 100 372 b 139 228 100 324 113 282 l 224 56 b 507 -128 290 -79 375 -128 b 811 122 679 -128 807 -32 l 811 329 b 699 632 811 435 744 533 b 388 817 638 764 564 801 b 100 576 196 804 100 724 z m 410 786 b 661 574 578 782 661 711 l 661 446 l 410 446 l 410 535 l 472 535 l 472 582 b 410 653 472 624 451 647 z m 410 282 b 472 379 451 289 472 321 l 661 379 b 410 149 661 232 578 156 z m 131 576 b 379 786 131 711 214 782 l 379 654 b 318 582 339 649 318 625 l 318 535 l 379 535 l 379 446 l 318 446 l 318 361 b 379 282 318 313 339 286 l 379 149 b 131 372 214 154 131 229 z "},"f":{"ha":618,"x_min":0,"x_max":0,"o":"m 74 801 l 74 599 l 171 410 l 171 132 l 297 -108 l 536 -108 l 536 354 l 654 354 l 654 810 l 532 1058 l 404 1058 b 171 801 249 1058 171 972 z m 418 769 l 503 769 l 503 629 l 418 629 z m 203 811 b 415 1028 203 956 274 1028 l 500 1028 l 500 899 b 386 811 396 899 386 881 l 386 164 l 203 164 z m 104 769 l 171 769 l 171 629 l 104 629 z "},"g":{"ha":776,"x_min":0,"x_max":0,"o":"m 440 801 l 440 769 b 290 808 389 796 339 808 b 92 574 158 808 92 731 l 92 381 b 144 183 93 321 107 254 l 242 0 l 242 -51 l 365 -294 b 488 -312 408 -307 449 -312 b 794 -1 692 -312 794 -208 l 794 553 l 672 801 z m 471 769 l 642 769 l 642 243 b 365 -37 642 56 550 -37 b 274 -26 333 -37 306 -33 l 274 94 b 340 86 294 88 318 86 b 471 203 428 86 471 125 z m 124 569 b 290 778 124 708 179 778 b 432 742 342 778 389 768 l 432 636 b 378 654 417 649 399 654 b 314 597 335 654 314 635 l 314 372 b 379 286 314 315 336 286 b 432 321 403 286 419 297 l 432 211 b 321 160 406 176 369 160 b 124 383 189 160 124 235 z "},"h":{"ha":775,"x_min":0,"x_max":0,"o":"m 138 1051 l 322 1051 l 322 164 l 138 164 z m 354 750 b 485 785 386 774 429 785 b 663 575 603 785 663 715 l 664 164 l 472 164 l 472 575 b 397 658 472 631 447 658 b 354 642 379 658 365 653 z m 107 1083 l 107 132 l 232 -108 l 475 -108 l 475 75 l 567 -108 l 815 -108 l 815 357 b 758 536 801 406 796 464 l 672 697 b 483 815 625 785 578 815 l 353 1083 z "},"i":{"ha":460,"x_min":0,"x_max":0,"o":"m 107 1028 l 107 132 l 232 -108 l 472 -108 l 472 779 l 353 1028 z m 138 997 l 322 997 l 322 853 l 138 853 z m 138 769 l 321 769 l 321 164 l 138 164 z "},"j":{"ha":447,"x_min":0,"x_max":0,"o":"m 100 1028 l 100 168 b 47 126 100 140 82 126 b -32 139 25 126 -1 131 l -32 -51 l 92 -294 b 224 -312 135 -307 178 -312 b 464 -81 383 -312 464 -235 l 464 782 l 343 1028 z m 131 997 l 314 997 l 314 856 l 131 856 z m 131 769 l 314 769 l 314 164 b 100 -37 314 29 243 -37 b -1 -26 68 -37 36 -33 l -1 99 b 46 94 14 96 29 94 b 131 167 103 94 131 118 z "},"k":{"ha":803,"x_min":0,"x_max":0,"o":"m 107 1083 l 107 132 l 232 -108 l 475 -108 l 475 58 l 504 111 l 622 -108 l 876 -108 l 671 290 l 860 553 l 742 801 l 494 801 l 353 1083 z m 472 769 l 682 769 l 525 551 l 439 711 z m 421 685 l 706 164 l 517 164 l 383 415 l 346 350 l 346 557 z m 138 1051 l 322 1051 l 322 164 l 138 164 z "},"l":{"ha":461,"x_min":0,"x_max":0,"o":"m 107 1083 l 107 132 l 232 -108 l 475 -108 l 475 835 l 353 1083 z m 138 1051 l 322 1051 l 322 164 l 138 164 z "},"m":{"ha":1099,"x_min":0,"x_max":0,"o":"m 107 801 l 107 132 l 232 -108 l 475 -108 l 475 26 l 543 -108 l 792 -108 l 792 39 l 867 -108 l 1115 -108 l 1115 364 b 900 788 1115 433 965 744 b 785 815 874 804 822 815 b 621 739 714 815 656 774 b 461 815 585 790 532 815 b 357 786 426 815 392 804 l 353 801 z m 682 750 b 783 785 711 774 744 785 b 961 575 901 785 961 715 l 963 164 l 771 164 l 771 575 b 721 658 771 631 754 658 b 682 642 704 658 692 653 z m 354 750 b 460 785 386 774 421 785 b 615 688 538 785 589 753 b 656 733 625 703 638 718 l 656 606 b 639 565 644 597 639 583 l 639 164 l 450 164 l 450 575 b 397 658 450 631 432 658 b 354 642 379 658 365 653 z m 138 769 l 322 769 l 322 164 l 138 164 z "},"n":{"ha":800,"x_min":0,"x_max":0,"o":"m 107 801 l 107 132 l 232 -108 l 475 -108 l 475 75 l 567 -108 l 815 -108 l 815 364 b 758 536 811 414 793 471 l 672 697 b 486 815 628 781 581 815 b 357 786 438 815 396 804 l 353 801 z m 354 750 b 485 785 386 774 429 785 b 663 575 603 785 663 715 l 664 164 l 472 164 l 472 575 b 397 658 472 631 447 658 b 354 642 379 658 365 653 z m 138 769 l 322 769 l 322 164 l 138 164 z "},"o":{"ha":792,"x_min":0,"x_max":0,"o":"m 379 817 b 100 576 189 817 100 726 l 100 372 b 135 225 100 326 108 276 l 225 46 b 501 -124 285 -74 354 -112 l 536 -124 b 811 201 743 -106 811 -37 l 811 329 b 763 503 810 379 797 438 l 676 665 b 418 817 622 767 536 817 z m 410 786 b 661 574 578 783 661 713 l 661 371 b 410 149 661 225 578 151 l 410 282 b 472 361 451 289 472 315 l 472 582 b 410 653 472 624 451 647 z m 131 576 b 386 786 131 715 215 785 l 386 654 b 318 582 340 653 318 626 l 318 361 b 386 281 318 310 340 283 l 386 149 b 131 372 215 151 131 226 z "},"p":{"ha":776,"x_min":0,"x_max":0,"o":"m 107 801 l 107 -67 l 232 -310 l 475 -310 l 475 -92 b 604 -124 515 -112 558 -124 b 815 122 744 -124 815 -42 l 815 326 b 768 515 815 386 803 450 l 676 690 b 494 808 628 782 585 808 b 361 778 446 808 401 799 l 353 801 z m 354 742 b 494 778 394 765 442 778 b 663 569 607 778 663 708 l 663 371 b 485 149 663 222 603 149 b 354 185 433 149 389 161 l 354 292 b 397 275 367 281 381 275 b 472 358 447 275 472 303 l 472 597 b 410 654 472 635 451 654 b 354 636 390 654 372 649 z m 138 769 l 322 769 l 322 -35 l 138 -35 z "},"q":{"ha":776,"x_min":0,"x_max":0,"o":"m 422 801 l 422 775 b 281 808 374 796 329 808 b 82 574 149 808 82 731 l 82 369 b 126 193 82 304 97 253 l 236 -29 b 414 -124 267 -92 329 -124 b 454 -122 429 -124 439 -124 l 549 -310 l 790 -310 l 790 553 l 669 801 z m 454 769 l 639 769 l 639 -35 l 454 -35 z m 114 569 b 281 778 114 708 169 778 b 422 742 332 778 379 768 l 422 636 b 367 654 407 649 389 654 b 304 597 325 654 304 635 l 304 358 b 379 275 304 303 329 275 b 422 292 392 275 407 281 l 422 185 b 292 149 388 161 343 149 b 114 371 174 149 114 222 z "},"r":{"ha":608,"x_min":0,"x_max":0,"o":"m 106 801 l 106 132 l 232 -108 l 472 -108 l 472 286 b 567 358 511 335 543 358 b 656 338 583 358 613 353 l 656 560 l 535 808 b 365 769 456 808 403 796 l 353 801 z m 350 714 b 493 776 383 758 428 776 l 504 776 l 504 622 b 443 632 483 629 461 632 b 350 588 403 632 372 617 z m 138 769 l 322 769 l 322 164 l 138 164 z "},"s":{"ha":815,"x_min":0,"x_max":0,"o":"m 397 817 b 115 601 207 817 115 735 b 143 504 115 574 122 542 l 192 414 l 90 414 b 132 244 92 357 100 306 l 224 57 b 517 -126 282 -64 361 -124 l 549 -126 b 842 86 744 -126 842 -56 b 825 161 842 114 836 139 l 756 297 l 836 297 b 807 431 835 351 825 396 l 722 624 b 431 817 664 757 572 817 z m 428 786 b 685 572 596 782 682 710 l 508 572 b 428 653 508 621 482 647 z m 401 653 b 329 608 353 650 329 635 b 422 542 329 579 360 565 b 690 331 649 453 690 425 b 424 147 690 213 601 151 l 424 281 b 510 325 481 281 510 296 b 415 397 510 351 478 375 b 242 464 315 432 257 454 b 146 601 176 501 146 542 b 401 786 146 722 231 783 z m 301 383 b 396 282 301 324 333 289 l 396 147 b 121 383 214 153 122 232 z "},"t":{"ha":638,"x_min":0,"x_max":0,"o":"m 171 985 l 171 801 l 75 801 l 75 599 l 171 414 b 208 201 171 329 183 258 l 318 -10 b 558 -128 358 -89 429 -128 b 672 -112 564 -128 600 -122 l 671 71 l 550 318 l 536 317 l 536 356 l 642 356 l 642 556 l 415 985 z m 411 771 l 490 771 l 490 629 l 411 629 z m 203 954 l 383 954 l 383 364 b 458 278 383 307 408 278 b 521 283 486 278 507 279 l 521 157 b 431 146 483 147 453 146 b 203 353 279 146 203 215 z m 107 771 l 179 771 l 179 629 l 107 629 z "},"u":{"ha":799,"x_min":0,"x_max":0,"o":"m 104 801 l 104 374 b 146 197 104 290 122 243 l 260 -29 b 436 -124 292 -92 351 -124 b 561 -96 474 -124 515 -114 l 569 -108 l 811 -108 l 811 553 l 693 801 l 446 801 l 446 617 l 356 801 z m 476 769 l 661 769 l 661 164 l 476 164 z m 136 769 l 325 769 l 325 358 b 401 275 325 303 350 275 b 444 292 414 275 429 281 l 444 185 b 314 149 410 161 365 149 b 136 358 196 149 136 218 z "},"v":{"ha":799,"x_min":0,"x_max":0,"o":"m 68 801 l 304 132 l 428 -108 l 639 -108 l 849 553 l 729 801 l 479 801 l 414 575 l 304 801 z m 503 769 l 686 769 l 507 221 l 418 478 z m 111 769 l 282 769 l 490 164 l 325 164 z "},"w":{"ha":1117,"x_min":0,"x_max":0,"o":"m 79 801 l 286 132 l 413 -108 l 601 -108 l 658 104 l 767 -108 l 968 -108 l 1156 553 l 1035 801 l 799 801 l 753 592 l 650 801 l 469 801 l 415 607 l 322 801 z m 824 769 l 994 769 l 826 193 l 751 450 z m 493 769 l 629 769 l 804 164 l 664 164 l 560 565 l 467 193 l 404 456 z m 121 769 l 297 769 l 443 164 l 310 164 z "},"x":{"ha":850,"x_min":0,"x_max":0,"o":"m 82 801 l 272 458 l 72 132 l 200 -108 l 451 -108 l 544 40 l 644 -108 l 907 -108 l 699 254 l 893 553 l 774 801 l 503 801 l 429 671 l 346 801 z m 521 769 l 715 769 l 540 499 l 447 640 z m 139 769 l 329 769 l 722 164 l 536 164 z m 308 458 l 404 314 l 313 164 l 128 164 z "},"y":{"ha":804,"x_min":0,"x_max":0,"o":"m 81 801 l 299 185 b 249 135 297 156 281 139 l 169 135 l 169 -64 l 293 -307 b 396 -310 326 -308 361 -310 b 624 -169 506 -310 582 -262 l 864 556 l 743 801 l 490 801 l 436 565 l 321 801 z m 517 771 l 701 771 l 508 169 l 438 435 z m 124 771 l 299 771 l 488 122 b 274 -35 453 18 381 -35 b 200 -33 258 -35 233 -35 l 200 104 b 331 188 307 104 326 126 z "},"z":{"ha":735,"x_min":0,"x_max":0,"o":"m 128 801 l 128 606 l 215 436 l 103 293 l 103 132 l 228 -108 l 768 -108 l 768 83 l 674 274 l 768 396 l 768 553 l 647 801 z m 160 769 l 617 769 l 617 636 l 160 636 z m 392 610 l 589 610 l 358 322 l 163 322 z m 135 300 l 617 300 l 617 164 l 135 164 z "},"{":{"ha":601,"x_min":0,"x_max":0,"o":"m 511 1107 b 181 825 233 1107 181 1053 b 185 704 181 801 185 719 b 71 593 185 642 147 606 l 71 396 l 185 172 b 225 -39 185 78 197 15 b 428 -339 281 -150 332 -310 b 632 -357 465 -350 532 -357 l 632 -197 l 511 49 l 481 51 b 413 264 476 163 438 213 b 485 490 461 301 485 376 b 481 607 485 522 481 558 b 632 696 481 658 521 694 l 632 858 z m 481 969 b 331 851 363 954 331 929 l 331 731 b 197 494 331 601 286 524 b 332 258 288 467 332 388 b 331 138 332 229 331 164 b 481 22 331 64 354 33 l 481 -83 b 215 119 251 -83 215 -31 b 219 249 215 140 219 224 b 100 422 219 353 179 411 l 100 567 b 219 746 179 581 219 640 b 217 867 219 772 217 838 b 418 1074 217 1022 278 1074 b 481 1069 436 1074 454 1071 z "},"|":{"ha":339,"x_min":0,"x_max":0,"o":"m 107 1160 l 107 -126 l 232 -371 l 349 -371 l 349 914 l 228 1160 z m 138 1131 l 197 1131 l 197 -96 l 138 -96 z "},"}":{"ha":601,"x_min":0,"x_max":0,"o":"m 90 942 l 215 697 l 242 694 b 313 481 246 588 275 544 b 238 254 263 442 238 367 b 242 138 238 226 242 160 b 118 51 242 82 218 63 l 90 51 l 90 -114 l 215 -358 b 540 -69 497 -358 540 -303 b 539 -14 540 -54 539 -36 l 539 40 b 653 153 539 103 576 140 l 653 347 l 539 575 b 401 981 539 763 464 860 b 90 1106 347 1085 308 1106 z m 121 1075 b 386 871 342 1075 386 1025 b 382 743 386 842 382 769 b 500 568 382 639 421 581 l 500 422 b 382 249 421 411 382 353 b 386 122 382 221 386 149 b 121 -83 386 -28 349 -83 l 121 22 b 272 138 243 33 272 60 b 269 264 272 164 269 236 b 403 496 269 401 307 463 b 269 731 314 525 269 603 l 269 792 b 272 846 269 815 272 835 b 121 969 272 929 249 951 z "},"":{"ha":839,"x_min":0,"x_max":0,"o":""},"¡":{"ha":479,"x_min":0,"x_max":0,"o":"m 108 1083 l 108 863 l 144 794 l 99 135 l 224 -108 l 499 -108 l 450 585 l 432 618 l 488 618 l 488 835 l 367 1083 z m 139 1051 l 335 1051 l 335 892 l 139 892 z m 176 803 l 299 803 l 346 164 l 132 164 z "},"¢":{"ha":786,"x_min":0,"x_max":0,"o":"m 276 1142 l 276 963 b 113 743 167 928 113 856 l 113 539 b 151 392 113 492 125 443 b 274 153 228 238 268 157 l 397 -108 l 653 -108 l 653 58 b 825 286 768 96 825 171 l 825 493 b 775 669 818 542 813 599 l 689 831 b 656 889 672 863 661 882 l 535 1142 z m 307 1110 l 503 1110 l 503 971 l 307 971 z m 424 950 b 672 739 589 946 672 875 l 672 681 l 486 681 b 424 817 486 800 479 810 z m 424 447 b 486 585 478 454 486 471 l 672 585 l 672 535 b 424 314 672 396 589 322 z m 143 743 b 388 950 143 876 225 946 l 388 818 b 331 747 350 813 331 789 l 331 525 b 388 447 331 479 350 453 l 388 314 b 143 539 225 318 143 393 z m 304 304 l 500 304 l 500 164 l 304 164 z "},"£":{"ha":768,"x_min":0,"x_max":0,"o":"m 90 801 l 90 599 l 94 599 l 188 410 l 188 289 l 82 289 l 82 129 l 206 -114 l 808 -114 l 808 42 l 688 289 l 556 289 l 556 354 l 671 354 l 671 553 l 636 624 l 669 624 l 669 810 l 549 1053 l 549 1058 l 421 1058 b 188 801 265 1058 188 972 z m 435 769 l 519 769 l 519 629 l 435 629 z m 219 811 b 432 1028 219 956 290 1028 l 518 1028 l 518 899 b 403 811 413 899 403 883 l 403 258 l 657 258 l 657 160 l 113 160 l 113 258 l 219 258 z m 122 769 l 188 769 l 188 629 l 122 629 z "},"¥":{"ha":922,"x_min":0,"x_max":0,"o":"m 60 1083 l 326 503 l 175 503 l 175 374 l 178 374 l 181 367 l 175 367 l 175 238 l 178 238 l 300 -6 l 403 -6 l 454 -108 l 718 -108 l 718 -6 l 872 -6 l 872 121 l 867 131 l 872 131 l 872 257 l 786 428 l 981 835 l 863 1083 l 581 1083 l 469 818 l 340 1083 z m 600 1051 l 813 1051 l 567 539 l 567 472 l 721 472 l 721 406 l 567 406 l 567 338 l 721 338 l 721 268 l 567 268 l 567 164 l 361 164 l 361 268 l 206 268 l 206 338 l 361 338 l 361 406 l 206 406 l 206 472 l 361 472 z m 107 1051 l 321 1051 l 436 760 l 346 539 z "},"¨":{"ha":657,"x_min":0,"x_max":0,"o":"m 107 1253 l 107 1068 l 232 825 l 671 825 l 671 1006 l 550 1247 l 550 1253 z m 367 1222 l 519 1222 l 519 1100 l 367 1100 z m 138 1222 l 286 1222 l 286 1100 l 138 1100 z "},"©":{"ha":1146,"x_min":0,"x_max":0,"o":"m 582 1051 b 1021 614 819 1051 1021 853 b 582 176 1021 372 822 176 b 146 614 342 176 146 372 b 582 1051 146 853 342 1051 z m 582 1083 b 114 614 326 1083 114 867 b 372 46 114 421 333 90 b 704 -97 457 -50 567 -97 b 1172 367 960 -97 1172 111 b 1126 561 1172 428 1154 494 b 582 1083 1022 815 885 1083 z m 213 621 b 590 243 213 411 381 243 b 968 621 801 243 968 414 b 590 997 968 826 796 997 b 213 621 383 997 213 826 z m 601 888 b 807 711 746 882 807 824 l 807 663 l 653 663 b 601 775 653 760 647 768 z m 601 468 b 653 582 646 475 653 488 l 807 582 l 807 540 b 601 356 807 424 739 363 z m 367 714 b 572 888 367 826 435 883 l 572 776 b 524 718 540 771 524 751 l 524 533 b 572 468 524 494 540 472 l 572 356 b 367 543 435 361 367 424 z "},"ª":{"ha":483,"x_min":0,"x_max":0,"o":"m 50 947 l 68 913 b 33 808 39 881 33 860 b 50 763 32 793 40 779 l 107 656 b 221 600 128 617 153 600 b 292 622 250 600 274 607 l 304 604 l 431 604 b 410 754 415 638 410 688 l 410 844 b 390 911 410 865 403 885 l 343 1013 b 206 1078 319 1063 285 1078 b 50 964 101 1078 50 1040 z m 65 963 b 206 1063 65 1029 113 1063 b 332 969 290 1063 332 1032 l 332 853 b 343 744 332 792 339 756 l 249 744 b 235 788 239 757 235 771 l 235 964 b 203 994 235 985 224 994 b 161 963 175 994 161 983 z m 215 892 b 146 844 169 881 146 865 b 176 807 146 819 156 807 b 215 811 192 807 204 808 l 215 754 b 160 739 200 744 181 739 b 50 835 86 739 50 771 b 215 953 50 897 106 938 z "},"«":{"ha":853,"x_min":0,"x_max":0,"o":"m 118 638 l 118 500 l 242 254 l 625 -22 l 625 164 l 882 -22 l 882 168 l 768 397 l 882 479 l 882 671 l 761 913 l 761 921 l 569 779 l 503 913 l 503 921 z m 406 622 l 731 860 l 731 739 l 488 568 l 731 397 l 731 281 l 406 517 z m 147 622 l 472 860 l 472 739 l 229 568 l 472 397 l 472 281 l 147 517 z "},"®":{"ha":963,"x_min":0,"x_max":0,"o":"m 285 310 b 617 96 374 160 467 96 b 978 456 815 96 978 258 b 833 831 978 567 900 703 b 493 1065 750 988 642 1065 b 132 703 299 1065 132 899 b 285 310 132 599 218 447 z m 493 1035 b 826 703 675 1035 826 885 b 493 371 826 521 675 371 b 163 703 310 371 163 519 b 493 1035 163 885 310 1035 z m 500 994 b 213 707 343 994 213 865 b 500 421 213 547 343 421 b 786 707 656 421 786 551 b 500 994 786 864 654 994 z m 485 913 l 513 913 b 657 803 608 913 657 876 b 601 713 657 751 639 721 b 656 613 638 704 656 671 b 654 549 656 597 654 561 b 663 501 654 525 657 510 l 565 501 b 553 553 557 517 553 533 b 560 626 553 574 560 614 b 485 678 560 661 535 678 l 485 746 b 560 794 553 746 560 754 b 485 843 560 835 550 843 z m 372 913 l 467 913 l 467 501 l 372 501 z "},"°":{"ha":874,"x_min":0,"x_max":0,"o":"m 435 1019 b 128 713 267 1019 128 881 b 374 221 128 583 294 289 b 557 163 419 182 481 163 b 863 467 724 163 863 300 b 721 819 863 563 788 686 b 435 1019 654 953 563 1019 z m 157 713 b 435 988 157 864 285 988 b 710 713 583 988 710 861 b 435 436 710 564 586 436 b 157 713 283 436 157 563 z m 439 954 b 201 715 310 954 201 849 b 439 478 201 585 310 478 b 678 715 567 478 678 588 b 439 954 678 843 567 954 z m 358 524 b 561 681 385 618 467 681 b 639 664 585 681 610 676 b 439 508 617 575 533 508 b 358 524 411 508 385 514 z "},"²":{"ha":565,"x_min":0,"x_max":0,"o":"m 161 796 b 103 697 146 778 126 746 l 104 585 l 226 342 l 582 342 l 582 475 l 533 569 b 590 707 571 604 590 650 b 397 1083 590 767 467 1043 b 297 1100 376 1094 328 1100 b 111 892 174 1100 113 1031 z m 140 922 b 297 1068 140 1019 193 1068 b 438 956 390 1068 438 1031 b 314 785 438 872 432 867 b 254 707 281 761 261 736 l 139 707 b 260 839 156 751 194 796 b 342 939 314 874 342 907 b 297 999 342 979 326 999 b 242 922 261 999 243 974 z m 132 690 l 429 690 l 429 617 l 132 617 z "},"³":{"ha":549,"x_min":0,"x_max":0,"o":"m 138 931 b 272 1068 138 1019 182 1065 l 272 994 b 235 931 247 990 235 968 z m 290 1068 b 418 940 375 1067 418 1024 b 372 847 418 899 403 868 b 429 744 410 826 429 792 b 290 608 429 654 383 610 l 290 681 b 335 736 319 686 335 704 b 235 810 335 792 321 810 l 235 882 b 325 944 308 882 325 896 b 290 994 325 974 314 990 z m 233 753 b 275 681 233 708 247 685 l 275 608 b 136 753 182 614 136 663 z m 260 1094 b 107 900 158 1078 107 1013 l 168 783 l 104 783 b 157 600 104 739 122 678 l 251 428 b 382 335 283 379 328 347 l 426 335 b 581 496 529 349 581 403 b 544 610 581 525 568 564 b 568 694 560 633 568 663 b 438 999 568 764 500 882 b 301 1094 404 1061 374 1088 z "},"´":{"ha":556,"x_min":0,"x_max":0,"o":"m 206 1265 l 54 1068 l 179 825 l 381 825 l 674 1019 l 558 1265 z m 221 1236 l 454 1236 l 250 1100 l 115 1100 z "},"μ":{"ha":915,"x_min":0,"x_max":0,"o":"m 104 801 l 104 328 b 157 175 104 319 132 219 b 92 72 114 146 92 111 b 254 -265 92 44 226 -226 l 550 -265 l 478 -121 b 638 -71 529 -114 582 -97 b 831 -128 683 -108 749 -128 b 944 -112 835 -128 874 -122 l 944 71 l 808 317 l 808 551 l 688 800 l 444 800 l 444 618 l 356 801 z m 135 769 l 325 769 l 325 358 b 401 275 325 303 350 275 b 440 282 415 275 428 278 l 479 189 b 315 149 417 163 363 149 l 285 119 b 269 81 275 107 269 93 b 339 8 269 65 293 42 l 147 8 b 122 72 131 32 122 53 b 211 175 122 107 151 140 b 136 358 161 207 136 268 z m 475 768 l 657 768 l 657 364 b 731 278 657 307 682 278 b 793 283 751 278 771 279 l 793 157 b 704 146 754 147 726 146 b 475 353 551 146 475 215 z "},"¶":{"ha":746,"x_min":0,"x_max":0,"o":"m 276 1036 b 139 836 197 1036 139 940 b 179 696 139 794 153 747 l 297 463 l 297 203 l 421 -40 l 524 -40 l 524 86 l 585 -40 l 681 -40 l 681 597 l 743 597 l 743 788 l 622 1036 z m 371 885 l 371 233 l 326 233 l 326 688 b 276 667 313 674 296 667 b 171 836 217 667 171 744 b 276 1004 171 929 217 1004 l 592 1004 l 592 872 l 529 872 l 529 233 l 492 233 l 492 885 z "},"·":{"ha":472,"x_min":0,"x_max":0,"o":"m 107 710 l 107 510 l 232 265 l 486 265 l 486 463 l 365 710 z m 138 679 l 333 679 l 333 540 l 138 540 z "},"¹":{"ha":481,"x_min":0,"x_max":0,"o":"m 221 1100 b 113 1039 213 1060 176 1039 l 113 922 l 181 792 l 181 593 l 306 350 l 464 350 l 464 851 l 343 1093 l 343 1100 z m 143 1010 b 246 1068 203 1010 238 1029 l 314 1068 l 314 625 l 211 625 l 211 953 l 143 953 z "},"º":{"ha":510,"x_min":0,"x_max":0,"o":"m 215 1088 b 56 950 104 1088 56 1039 l 56 833 b 78 750 56 801 63 782 l 126 646 b 285 547 160 575 197 547 l 306 547 b 464 735 426 547 464 597 l 464 808 b 436 908 464 835 456 871 l 386 1003 b 236 1088 356 1060 306 1088 z m 232 1071 b 378 949 329 1069 378 1028 l 378 832 b 232 704 378 747 329 706 l 232 782 b 268 826 256 785 268 800 l 268 954 b 232 994 268 976 256 990 z m 72 950 b 218 1071 72 1029 121 1069 l 218 996 b 179 954 192 994 179 981 l 179 826 b 218 779 179 797 192 782 l 218 704 b 72 833 121 706 72 749 z "},"»":{"ha":879,"x_min":0,"x_max":0,"o":"m 107 919 l 107 725 l 224 494 l 107 414 l 107 218 l 232 -24 l 436 126 l 511 -24 l 896 254 l 896 390 l 774 638 l 388 919 l 388 715 z m 418 858 l 743 622 l 743 517 l 418 278 l 418 399 l 663 569 l 418 739 z m 138 858 l 463 622 l 463 517 l 138 278 l 138 399 l 382 569 l 138 739 z "},"¼":{"ha":1047,"x_min":0,"x_max":0,"o":"m 218 1100 b 107 1038 210 1060 172 1039 l 107 922 l 111 922 l 176 792 l 176 593 l 278 396 l 97 132 l 224 -108 l 343 -108 l 560 204 l 674 -24 l 803 -24 l 844 -108 l 999 -108 l 999 -24 l 1063 -24 l 1063 103 l 999 228 l 999 390 l 871 649 l 1013 856 l 893 1103 l 768 1103 l 461 658 l 461 851 l 340 1100 z m 751 607 l 849 607 l 849 318 l 911 318 l 911 250 l 849 250 l 849 164 l 751 164 z m 785 1071 l 835 1071 l 204 164 l 154 164 z m 735 575 l 735 439 l 664 318 l 735 318 l 735 250 l 582 250 l 582 317 z m 139 1010 b 243 1068 200 1010 235 1029 l 308 1068 l 308 625 l 208 625 l 208 953 l 139 953 z "},"½":{"ha":1051,"x_min":0,"x_max":0,"o":"m 225 1099 b 115 1039 218 1058 182 1039 l 115 922 l 185 790 l 185 593 l 278 413 l 83 132 l 210 -108 l 331 -108 l 542 194 l 542 132 l 667 -108 l 1021 -108 l 1021 22 l 974 118 b 1029 254 1011 153 1029 197 b 842 626 1029 315 910 592 l 1001 856 l 881 1103 l 756 1103 l 468 688 l 468 851 l 349 1099 z m 582 469 b 738 617 583 568 635 617 b 879 503 832 617 879 579 b 753 332 879 419 875 414 b 696 254 721 311 701 285 l 578 254 b 699 386 596 290 636 343 b 783 486 756 424 783 457 b 736 547 783 526 768 547 b 681 469 701 547 682 521 z m 771 1071 l 822 1071 l 192 164 l 140 164 z m 146 1008 b 250 1068 207 1008 242 1028 l 317 1068 l 317 624 l 215 624 l 215 953 l 146 953 z m 574 238 l 871 238 l 871 164 l 574 164 z "},"¾":{"ha":1039,"x_min":0,"x_max":0,"o":"m 225 1097 b 72 901 124 1078 72 1013 l 135 785 l 71 785 b 124 601 75 733 86 669 l 215 432 b 257 378 229 406 235 388 l 88 132 l 213 -108 l 333 -108 l 558 211 l 676 -24 l 803 -24 l 847 -108 l 1001 -108 l 1001 -24 l 1063 -24 l 1063 103 l 1001 228 l 1001 390 l 867 658 l 1004 856 l 885 1103 l 761 1103 l 524 761 b 268 1097 415 978 400 1079 z m 753 607 l 849 607 l 849 318 l 913 318 l 913 250 l 849 250 l 849 164 l 753 164 z m 104 932 b 238 1068 104 1019 149 1065 l 238 994 b 201 932 214 990 201 969 z m 257 1068 b 382 940 340 1067 382 1024 b 339 847 382 899 368 868 b 394 744 376 826 394 793 b 257 608 394 654 349 610 l 257 682 b 301 736 286 686 301 704 b 201 810 301 793 285 810 l 201 883 b 292 944 278 883 292 896 b 257 994 292 974 281 990 z m 776 1071 l 826 1071 l 196 164 l 146 164 z m 736 575 l 736 439 l 665 318 l 736 318 l 736 250 l 582 250 l 582 317 z m 197 754 b 240 681 200 708 214 685 l 240 608 b 103 754 150 614 104 663 z "},"¿":{"ha":786,"x_min":0,"x_max":0,"o":"m 275 1100 l 275 872 l 278 872 l 292 844 l 289 844 b 290 789 289 824 290 807 b 229 658 290 746 283 707 b 81 411 94 539 81 511 b 208 68 81 300 156 179 b 525 -111 274 -71 356 -100 l 525 -108 b 828 149 726 -99 828 -12 l 701 424 l 608 424 b 631 567 621 464 629 511 l 600 629 l 646 629 l 646 851 l 525 1100 z m 307 1068 l 494 1068 l 494 901 l 307 901 z m 404 304 b 503 396 469 307 503 338 l 678 396 b 404 164 678 244 586 167 z m 318 813 l 479 813 b 346 535 475 683 475 671 b 299 422 314 501 299 467 b 374 306 299 349 324 310 l 374 164 b 111 410 199 169 111 251 b 163 556 111 464 128 513 b 315 746 183 571 313 681 z "},"À":{"ha":893,"x_min":0,"x_max":0,"o":"m 119 1265 l 274 1001 l 51 132 l 178 -108 l 440 -108 l 483 75 l 597 75 l 693 -108 l 965 -108 l 726 835 l 588 1083 l 440 1265 z m 219 1236 l 426 1236 l 535 1100 l 424 1100 z m 317 1051 l 581 1051 l 804 164 l 592 164 l 550 350 l 374 350 l 404 496 l 521 496 l 451 858 l 294 164 l 92 164 z "},"Á":{"ha":893,"x_min":0,"x_max":0,"o":"m 439 1265 l 290 1068 l 51 132 l 178 -108 l 440 -108 l 483 75 l 597 75 l 693 -108 l 965 -108 l 701 883 l 907 1019 l 790 1265 z m 454 1236 l 688 1236 l 483 1100 l 349 1100 z m 317 1051 l 581 1051 l 804 164 l 592 164 l 550 350 l 374 350 l 404 496 l 521 496 l 451 858 l 294 164 l 92 164 z "},"Â":{"ha":893,"x_min":0,"x_max":0,"o":"m 132 1068 l 238 867 l 51 132 l 178 -108 l 440 -108 l 483 75 l 597 75 l 693 -108 l 965 -108 l 729 825 l 892 825 l 769 1068 l 532 1265 l 374 1265 z m 218 1100 l 383 1236 l 521 1236 l 689 1100 l 521 1100 l 454 1158 l 386 1100 z m 317 1051 l 581 1051 l 804 164 l 592 164 l 550 350 l 374 350 l 404 496 l 521 496 l 451 858 l 294 164 l 92 164 z "},"Ã":{"ha":893,"x_min":0,"x_max":0,"o":"m 467 1236 b 381 1253 429 1247 400 1253 b 194 1068 257 1253 194 1192 l 258 944 l 51 132 l 178 -108 l 440 -108 l 483 75 l 597 75 l 693 -108 l 965 -108 l 725 836 b 819 978 788 858 819 906 l 688 1254 l 540 1254 b 535 1228 540 1243 539 1235 l 524 1221 b 467 1233 514 1221 494 1225 z m 225 1099 b 381 1222 225 1181 276 1222 b 524 1190 410 1222 494 1190 b 569 1222 554 1190 569 1201 l 669 1222 b 513 1099 669 1140 617 1099 b 371 1131 488 1099 393 1131 b 324 1099 339 1131 324 1119 z m 317 1051 l 581 1051 l 804 164 l 592 164 l 550 350 l 374 350 l 404 496 l 521 496 l 451 858 l 294 164 l 92 164 z "},"Ä":{"ha":893,"x_min":0,"x_max":0,"o":"m 226 1253 l 226 1068 l 269 988 l 51 132 l 178 -108 l 440 -108 l 483 75 l 597 75 l 693 -108 l 965 -108 l 729 825 l 790 825 l 790 1006 l 669 1253 z m 488 1222 l 638 1222 l 638 1100 l 488 1100 z m 257 1222 l 406 1222 l 406 1100 l 257 1100 z m 317 1051 l 581 1051 l 804 164 l 592 164 l 550 350 l 374 350 l 404 496 l 521 496 l 451 858 l 294 164 l 92 164 z "},"Å":{"ha":893,"x_min":0,"x_max":0,"o":"m 293 1083 l 51 132 l 178 -108 l 440 -108 l 483 75 l 597 75 l 693 -108 l 965 -108 l 704 876 b 710 914 708 885 710 897 b 694 976 710 936 704 956 l 582 1200 b 447 1296 550 1264 504 1296 b 308 1158 369 1296 308 1238 b 329 1083 308 1131 315 1106 z m 317 1051 l 439 1051 b 339 1158 372 1061 339 1096 b 447 1264 339 1221 388 1264 b 558 1158 508 1264 558 1221 b 456 1051 558 1099 524 1063 l 581 1051 l 804 164 l 592 164 l 550 350 l 374 350 l 404 496 l 521 496 l 451 858 l 294 164 l 92 164 z m 401 1157 b 450 1114 401 1128 418 1114 b 499 1157 482 1114 499 1128 b 450 1200 499 1186 482 1200 b 401 1157 418 1200 401 1186 z "},"Æ":{"ha":1004,"x_min":0,"x_max":0,"o":"m 293 1083 l 51 132 l 178 -108 l 440 -108 l 472 46 l 551 -108 l 1021 -108 l 1021 100 l 932 278 l 1006 278 l 1006 485 l 933 629 l 1021 629 l 1021 835 l 900 1083 z m 640 1051 l 871 1051 l 871 904 l 640 904 z m 640 699 l 853 699 l 853 551 l 640 551 z m 640 317 l 871 317 l 871 164 l 640 164 z m 317 1051 l 610 1051 l 610 164 l 458 164 l 458 350 l 374 350 l 404 499 l 456 499 l 456 857 l 438 858 l 294 164 l 92 164 z "},"Ç":{"ha":892,"x_min":0,"x_max":0,"o":"m 103 404 b 281 -6 103 283 232 57 b 257 -22 274 -10 267 -17 l 264 -22 l 386 -265 l 681 -265 b 721 -172 707 -225 721 -193 b 701 -114 721 -157 714 -137 b 915 157 844 -82 915 8 l 915 281 l 822 468 l 915 468 b 896 699 915 578 908 656 b 650 1069 829 838 760 1014 b 463 1101 606 1092 540 1101 b 103 831 222 1101 103 1011 z m 463 1071 b 764 825 664 1071 764 989 l 764 742 l 553 742 b 556 811 553 756 556 796 b 463 925 556 885 525 922 z m 132 828 b 421 1071 132 981 228 1061 l 421 925 b 340 836 367 917 340 888 l 340 375 b 421 289 340 326 367 297 l 463 289 b 557 404 525 293 557 332 b 553 496 557 425 553 475 l 764 496 b 517 149 764 233 704 171 b 568 72 551 124 568 99 b 543 8 568 53 560 32 l 350 8 b 421 79 397 42 421 65 b 372 149 421 97 404 121 b 132 406 213 169 132 256 z "},"È":{"ha":754,"x_min":0,"x_max":0,"o":"m 86 1265 l 181 1083 l 107 1083 l 107 132 l 232 -108 l 793 -108 l 793 100 l 704 278 l 776 278 l 776 485 l 704 629 l 793 629 l 793 835 l 671 1083 l 553 1083 l 407 1265 z m 186 1236 l 392 1236 l 500 1100 l 390 1100 z m 374 1051 l 640 1051 l 640 904 l 374 904 z m 374 699 l 625 699 l 625 551 l 374 551 z m 138 1051 l 343 1051 l 343 164 l 138 164 z m 374 317 l 640 317 l 640 164 l 374 164 z "},"É":{"ha":754,"x_min":0,"x_max":0,"o":"m 107 1083 l 107 132 l 232 -108 l 793 -108 l 793 100 l 704 278 l 776 278 l 776 485 l 704 629 l 793 629 l 793 835 l 729 963 l 813 1019 l 697 1265 l 346 1265 l 203 1083 z m 361 1236 l 593 1236 l 389 1100 l 254 1100 z m 374 1051 l 640 1051 l 640 904 l 374 904 z m 374 699 l 625 699 l 625 551 l 374 551 z m 138 1051 l 343 1051 l 343 164 l 138 164 z m 374 317 l 640 317 l 640 164 l 374 164 z "},"Ê":{"ha":754,"x_min":0,"x_max":0,"o":"m 67 1068 l 107 988 l 107 132 l 232 -108 l 793 -108 l 793 100 l 704 278 l 776 278 l 776 485 l 704 629 l 793 629 l 793 876 l 699 1068 l 461 1265 l 301 1265 z m 146 1100 l 314 1236 l 450 1236 l 617 1100 l 450 1100 l 382 1158 l 314 1100 z m 374 1051 l 640 1051 l 640 904 l 374 904 z m 374 699 l 625 699 l 625 551 l 374 551 z m 138 1051 l 343 1051 l 343 164 l 138 164 z m 374 317 l 640 317 l 640 164 l 374 164 z "},"Ë":{"ha":754,"x_min":0,"x_max":0,"o":"m 167 1253 l 167 1083 l 107 1083 l 107 132 l 232 -108 l 793 -108 l 793 100 l 704 278 l 776 278 l 776 485 l 704 629 l 793 629 l 793 835 l 729 961 l 729 1006 l 608 1253 z m 426 1222 l 578 1222 l 578 1100 l 426 1100 z m 374 1051 l 640 1051 l 640 904 l 374 904 z m 196 1222 l 346 1222 l 346 1100 l 196 1100 z m 374 699 l 625 699 l 625 551 l 374 551 z m 138 1051 l 343 1051 l 343 164 l 138 164 z m 374 317 l 640 317 l 640 164 l 374 164 z "},"Ì":{"ha":486,"x_min":0,"x_max":0,"o":"m -58 1265 l 71 1019 l 107 994 l 107 132 l 232 -108 l 499 -108 l 499 825 l 540 825 l 419 1068 l 265 1265 z m 42 1236 l 250 1236 l 357 1100 l 246 1100 z m 138 1051 l 347 1051 l 347 164 l 138 164 z "},"Í":{"ha":486,"x_min":0,"x_max":0,"o":"m 240 1265 l 88 1068 l 107 1038 l 107 132 l 232 -108 l 499 -108 l 499 835 l 481 871 l 707 1019 l 592 1265 z m 254 1236 l 490 1236 l 283 1100 l 149 1100 z m 138 1051 l 347 1051 l 347 164 l 138 164 z "},"Î":{"ha":486,"x_min":0,"x_max":0,"o":"m -75 1068 l 51 825 l 107 825 l 107 132 l 232 -108 l 499 -108 l 499 825 l 685 825 l 561 1068 l 324 1265 l 167 1265 z m 10 1100 l 176 1236 l 314 1236 l 481 1100 l 314 1100 l 244 1158 l 178 1100 z m 138 1051 l 347 1051 l 347 164 l 138 164 z "},"Ï":{"ha":486,"x_min":0,"x_max":0,"o":"m 24 1253 l 24 1068 l 107 907 l 107 132 l 232 -108 l 499 -108 l 499 825 l 588 825 l 588 1006 l 467 1253 z m 283 1222 l 435 1222 l 435 1100 l 283 1100 z m 54 1222 l 203 1222 l 203 1100 l 54 1100 z m 138 1051 l 347 1051 l 347 164 l 138 164 z "},"Ð":{"ha":942,"x_min":0,"x_max":0,"o":"m 154 1083 l 154 669 l 82 669 l 82 517 l 154 378 l 154 132 l 278 -108 l 646 -108 b 961 171 856 -108 961 -15 l 961 557 b 822 919 961 661 889 797 b 525 1083 760 1035 688 1083 z m 419 1051 l 525 1051 b 808 803 714 1051 808 968 l 808 418 b 524 164 808 249 714 164 l 419 164 l 419 314 b 599 394 574 314 599 324 l 599 810 b 419 900 599 883 575 900 z m 185 1051 l 388 1051 l 388 639 l 476 639 l 476 547 l 388 547 l 388 164 l 185 164 l 185 547 l 113 547 l 113 639 l 185 639 z "},"Ñ":{"ha":931,"x_min":0,"x_max":0,"o":"m 107 1083 l 107 132 l 232 -108 l 479 -108 l 479 335 l 694 -108 l 942 -108 l 942 835 l 822 1083 l 776 1083 l 707 1224 l 678 1254 l 549 1254 b 543 1228 549 1243 547 1235 l 532 1221 b 475 1233 522 1221 503 1225 l 475 1236 b 389 1253 438 1247 408 1253 b 203 1083 271 1253 208 1196 z m 235 1099 b 388 1222 235 1181 286 1222 b 532 1190 415 1222 503 1190 b 578 1222 563 1190 578 1201 l 678 1222 b 524 1099 678 1140 626 1099 b 381 1131 499 1099 404 1131 b 332 1099 349 1131 332 1119 z m 599 1051 l 792 1051 l 792 164 l 599 164 z m 503 857 l 568 840 l 568 613 l 479 793 l 479 824 l 485 824 b 490 850 485 835 486 843 z m 353 981 l 574 528 l 574 224 l 353 672 z m 138 1051 l 329 1051 l 329 164 l 138 164 z "},"Ò":{"ha":897,"x_min":0,"x_max":0,"o":"m 86 1265 l 204 1036 b 103 824 136 990 103 919 l 103 415 b 243 49 103 304 183 171 b 557 -128 314 -78 389 -121 l 578 -128 b 915 168 803 -115 915 -17 l 915 574 b 685 1044 915 696 774 982 b 544 1093 650 1068 601 1082 l 407 1265 z m 186 1236 l 392 1236 l 500 1100 l 390 1100 z m 463 1071 b 764 818 664 1071 764 986 l 764 413 b 463 146 764 240 664 151 l 463 289 b 553 383 522 292 553 324 l 553 831 b 463 925 553 889 522 921 z m 493 585 b 524 638 493 608 503 625 l 524 383 b 493 333 524 360 514 343 z m 132 824 b 428 1071 132 983 231 1065 l 428 925 b 340 831 369 921 340 889 l 340 383 b 428 289 340 324 369 293 l 428 146 b 132 415 231 153 132 242 z "},"Ó":{"ha":897,"x_min":0,"x_max":0,"o":"m 414 1265 l 258 1065 b 103 824 154 1022 103 942 l 103 415 b 243 49 103 304 183 171 b 557 -128 314 -78 389 -121 l 578 -128 b 915 168 803 -115 915 -17 l 915 574 b 769 946 914 696 771 947 l 881 1019 l 767 1265 z m 429 1236 l 663 1236 l 456 1100 l 324 1100 z m 463 1071 b 764 818 664 1071 764 986 l 764 413 b 463 146 764 240 664 151 l 463 289 b 553 383 522 292 553 324 l 553 831 b 463 925 553 889 522 921 z m 493 585 b 524 638 493 608 503 625 l 524 383 b 493 333 524 360 514 343 z m 132 824 b 428 1071 132 983 231 1065 l 428 925 b 340 831 369 921 340 889 l 340 383 b 428 289 340 324 369 293 l 428 146 b 132 415 231 153 132 242 z "},"Ô":{"ha":897,"x_min":0,"x_max":0,"o":"m 119 1068 l 161 997 b 103 824 122 954 103 896 l 103 415 b 243 49 103 304 183 171 b 557 -128 314 -78 389 -121 l 578 -128 b 915 168 803 -115 915 -17 l 915 574 b 889 703 915 624 907 667 b 828 825 888 707 868 747 l 881 825 l 758 1068 l 519 1265 l 363 1265 z m 206 1100 l 372 1236 l 510 1236 l 676 1100 l 508 1100 l 440 1158 l 374 1100 z m 463 1071 b 764 818 664 1071 764 986 l 764 413 b 463 146 764 240 664 151 l 463 289 b 553 383 522 292 553 324 l 553 831 b 463 925 553 889 522 921 z m 493 585 b 524 638 493 608 503 625 l 524 383 b 493 333 524 360 514 343 z m 132 824 b 428 1071 132 983 231 1065 l 428 925 b 340 831 369 921 340 889 l 340 383 b 428 289 340 324 369 293 l 428 146 b 132 415 231 153 132 242 z "},"Õ":{"ha":897,"x_min":0,"x_max":0,"o":"m 201 1035 b 103 824 136 988 103 917 l 103 415 b 244 43 103 304 182 168 b 557 -128 315 -86 397 -128 l 578 -128 b 915 168 803 -115 915 -17 l 915 574 b 792 900 915 669 850 790 b 808 978 803 922 808 949 l 688 1224 l 657 1254 l 526 1254 l 524 1228 l 511 1221 b 454 1233 501 1221 483 1225 l 454 1236 b 367 1253 415 1247 386 1253 b 183 1068 244 1253 183 1192 z m 213 1099 b 369 1222 213 1181 265 1222 b 511 1190 393 1222 482 1190 b 558 1222 543 1190 558 1201 l 657 1222 b 501 1099 657 1140 606 1099 b 358 1131 476 1099 382 1131 b 313 1099 328 1131 313 1119 z m 463 1071 b 764 818 664 1071 764 986 l 764 413 b 463 146 764 240 664 151 l 463 289 b 553 383 522 292 553 324 l 553 831 b 463 925 553 889 522 921 z m 493 585 b 524 638 493 608 503 625 l 524 383 b 493 333 524 360 514 343 z m 132 824 b 428 1071 132 983 231 1065 l 428 925 b 340 831 369 921 340 889 l 340 383 b 428 289 340 324 369 293 l 428 146 b 132 415 231 153 132 242 z "},"Ö":{"ha":897,"x_min":0,"x_max":0,"o":"m 225 1253 l 225 1068 l 235 1054 b 103 824 147 1010 103 933 l 103 415 b 243 49 103 304 183 171 b 557 -128 314 -78 389 -121 l 578 -128 b 915 168 803 -115 915 -17 l 915 574 b 872 744 915 626 901 683 l 790 904 l 790 1006 l 667 1253 z m 486 1222 l 638 1222 l 638 1100 l 486 1100 z m 257 1222 l 406 1222 l 406 1100 l 257 1100 z m 463 1071 b 764 818 664 1071 764 986 l 764 413 b 463 146 764 240 664 151 l 463 289 b 553 383 522 292 553 324 l 553 831 b 463 925 553 889 522 921 z m 493 585 b 524 638 493 608 503 625 l 524 383 b 493 333 524 360 514 343 z m 132 824 b 428 1071 132 983 231 1065 l 428 925 b 340 831 369 921 340 889 l 340 383 b 428 289 340 324 369 293 l 428 146 b 132 415 231 153 132 242 z "},"×":{"ha":793,"x_min":0,"x_max":0,"o":"m 210 936 l 107 832 l 246 572 l 103 426 b 197 236 136 361 168 299 l 326 81 l 533 286 l 726 92 l 826 193 l 697 450 l 833 588 l 713 832 l 610 933 l 411 735 z m 210 892 l 411 693 l 610 892 l 669 832 l 471 632 l 664 439 l 604 379 l 411 572 l 204 365 l 144 426 l 350 632 l 151 832 z "},"Ø":{"ha":897,"x_min":0,"x_max":0,"o":"m 432 1101 b 103 824 213 1088 103 994 l 103 415 b 243 49 103 304 183 171 b 557 -128 313 -72 392 -121 l 578 -128 b 915 168 803 -115 915 -17 l 915 574 b 775 931 915 674 842 806 b 458 1101 711 1047 624 1094 z m 132 824 b 428 1071 132 983 231 1065 l 428 925 b 340 831 369 921 340 889 l 340 432 l 553 832 b 463 925 553 889 522 921 l 463 1071 b 764 818 664 1071 764 986 l 764 413 b 463 146 764 240 664 151 l 463 289 b 553 383 522 292 553 324 l 553 763 l 342 365 b 428 289 347 317 376 292 l 428 146 b 132 415 231 153 132 242 z "},"Ù":{"ha":901,"x_min":0,"x_max":0,"o":"m 97 1265 l 194 1083 l 104 1083 l 104 415 b 353 -79 104 267 260 -25 b 551 -128 401 -108 467 -126 l 558 -128 b 917 168 797 -122 917 -24 l 917 835 l 799 1083 l 565 1083 l 419 1265 z m 197 1236 l 406 1236 l 513 1100 l 403 1100 z m 556 1051 l 767 1051 l 767 413 b 467 146 767 240 667 151 l 467 289 b 556 383 526 292 556 324 z m 494 839 l 525 825 l 525 383 b 494 326 525 357 515 338 z m 135 1051 l 343 1051 l 343 383 b 429 289 343 325 372 293 l 429 146 b 135 415 233 153 135 243 z "},"Ú":{"ha":901,"x_min":0,"x_max":0,"o":"m 104 1083 l 104 415 b 353 -79 104 267 260 -25 b 551 -128 401 -108 467 -126 l 558 -128 b 917 168 797 -122 917 -24 l 917 835 l 849 976 l 915 1019 l 800 1265 l 447 1265 l 306 1083 z m 463 1236 l 697 1236 l 490 1100 l 357 1100 z m 556 1051 l 767 1051 l 767 413 b 467 146 767 240 667 151 l 467 289 b 556 383 526 292 556 324 z m 494 825 l 525 825 l 525 383 b 494 326 525 357 515 338 z m 135 1051 l 343 1051 l 343 383 b 429 289 343 325 372 293 l 429 146 b 135 415 233 153 135 243 z "},"Û":{"ha":901,"x_min":0,"x_max":0,"o":"m 104 1083 l 104 415 b 353 -79 104 267 260 -25 b 551 -128 401 -108 467 -126 l 558 -128 b 917 168 797 -122 917 -24 l 917 835 l 799 1083 l 753 1083 l 528 1265 l 371 1265 l 144 1083 z m 213 1100 l 381 1236 l 518 1236 l 685 1100 l 517 1100 l 450 1158 l 382 1100 z m 556 1051 l 767 1051 l 767 413 b 467 146 767 240 667 151 l 467 289 b 556 383 526 292 556 324 z m 494 825 l 525 833 l 525 383 b 494 326 525 357 515 338 z m 135 1051 l 343 1051 l 343 383 b 429 289 343 325 372 293 l 429 146 b 135 415 233 153 135 243 z "},"Ü":{"ha":901,"x_min":0,"x_max":0,"o":"m 229 1253 l 229 1083 l 104 1083 l 104 415 b 353 -79 104 267 260 -25 b 551 -128 401 -108 467 -126 l 558 -128 b 917 168 797 -122 917 -24 l 917 835 l 799 1083 l 754 1083 l 672 1253 z m 490 1222 l 642 1222 l 642 1100 l 490 1100 z m 260 1222 l 410 1222 l 410 1100 l 260 1100 z m 556 1051 l 767 1051 l 767 413 b 467 146 767 240 667 151 l 467 289 b 556 383 526 292 556 324 z m 494 825 l 525 825 l 525 383 b 494 326 525 357 515 338 z m 135 1051 l 343 1051 l 343 383 b 429 289 343 325 372 293 l 429 146 b 135 415 233 153 135 243 z "},"Ý":{"ha":922,"x_min":0,"x_max":0,"o":"m 60 1083 l 333 490 l 333 132 l 454 -108 l 718 -108 l 718 285 l 981 835 l 860 1078 l 863 1083 l 840 1083 l 751 1263 l 756 1265 l 406 1265 l 261 1083 z m 419 1236 l 654 1236 l 450 1100 l 314 1100 z m 467 825 l 472 825 l 469 817 z m 600 1051 l 813 1051 l 567 539 l 567 164 l 361 164 l 361 478 z m 107 1051 l 321 1051 l 436 760 l 346 539 z "},"Þ":{"ha":746,"x_min":0,"x_max":0,"o":"m 107 1083 l 107 132 l 232 -108 l 475 -108 l 475 -8 b 768 215 653 -1 750 54 b 771 444 769 236 771 310 b 750 558 769 490 765 526 l 640 785 b 428 925 596 883 532 914 l 353 1083 z m 369 904 b 621 690 538 899 621 828 b 619 676 619 689 619 685 b 622 621 619 661 622 644 l 622 556 b 369 265 622 335 557 272 l 369 397 b 435 476 413 403 435 429 l 435 699 b 369 768 435 739 413 763 z m 138 1051 l 322 1051 l 322 164 l 138 164 z "},"ß":{"ha":839,"x_min":0,"x_max":0,"o":"m 399 1099 b 96 796 197 1083 96 982 l 96 129 l 219 -114 l 471 -114 l 471 -15 l 526 -128 b 860 196 767 -122 860 -15 b 783 403 860 251 854 261 b 836 565 818 446 836 500 b 696 932 836 681 760 806 b 422 1099 640 1042 568 1088 z m 431 1068 b 685 811 600 1063 685 976 b 596 626 685 731 656 669 b 710 421 672 589 710 521 b 432 147 710 244 617 153 l 432 293 b 524 406 493 301 524 339 b 426 560 524 507 492 558 l 426 697 b 503 819 478 697 503 731 b 431 919 503 879 479 913 z m 128 793 b 392 1068 128 968 215 1060 l 392 919 b 318 815 343 913 318 878 l 318 160 l 128 160 z "},"à":{"ha":828,"x_min":0,"x_max":0,"o":"m 81 1036 l 210 788 l 228 776 b 128 593 161 739 128 678 l 129 561 l 164 492 b 96 346 118 451 96 403 b 131 208 96 300 107 254 l 240 -10 b 461 -118 276 -82 344 -118 b 599 -72 514 -118 560 -103 b 622 -108 608 -89 615 -99 l 872 -108 b 825 186 831 -71 825 65 l 825 278 b 826 350 825 310 826 333 b 576 796 826 447 701 750 l 404 1036 z m 157 592 b 431 786 157 721 249 786 b 676 601 594 786 676 725 b 674 379 676 453 675 379 b 699 164 676 261 685 189 l 513 164 b 488 250 496 188 488 215 l 488 593 b 424 654 488 633 467 654 b 342 592 369 654 343 633 z m 447 453 b 315 361 360 431 315 400 b 372 286 315 311 335 286 b 447 297 397 286 422 290 l 447 183 b 340 156 421 165 385 156 b 128 340 199 156 128 217 b 447 569 128 465 235 542 z m 181 1006 l 389 1006 l 496 871 l 386 871 z m 865 -96 b 867 -100 865 -97 865 -99 z "},"á":{"ha":828,"x_min":0,"x_max":0,"o":"m 397 1036 l 243 839 l 269 794 b 128 593 175 763 128 694 l 129 561 l 164 492 b 96 346 118 451 96 403 b 131 208 96 300 107 254 l 240 -10 b 461 -118 276 -82 344 -118 b 600 -75 514 -118 560 -104 b 622 -108 607 -87 615 -99 l 872 -108 b 825 185 840 -46 825 51 l 825 276 b 826 350 825 308 826 333 b 697 678 826 443 760 560 l 864 788 l 747 1036 z m 157 592 b 431 786 157 721 249 786 b 676 601 594 786 676 725 b 674 379 676 453 675 379 b 699 164 676 260 685 188 l 513 164 b 488 250 496 188 488 215 l 488 593 b 424 654 488 633 467 654 b 342 592 369 654 343 633 z m 447 453 b 315 361 360 431 315 400 b 372 286 315 311 335 286 b 447 297 397 286 422 290 l 447 183 b 340 156 421 165 385 156 b 128 340 199 156 128 217 b 447 569 128 465 235 542 z m 413 1006 l 646 1006 l 439 871 l 307 871 z "},"â":{"ha":828,"x_min":0,"x_max":0,"o":"m 107 839 l 168 728 b 126 608 146 696 126 657 b 128 593 126 603 128 599 l 129 561 l 164 492 b 96 346 118 451 96 403 b 131 208 96 300 107 254 l 240 -10 b 461 -118 276 -82 344 -118 b 599 -78 513 -118 558 -104 l 622 -108 l 872 -108 b 828 131 843 -51 828 29 b 832 304 828 164 832 274 b 807 460 832 375 824 428 l 738 593 l 867 593 l 744 839 l 508 1036 l 349 1036 z m 157 592 b 431 786 157 721 249 786 b 676 601 594 786 676 725 b 674 379 676 453 675 379 b 699 164 676 260 685 188 l 496 164 b 488 250 496 188 488 217 l 488 593 b 424 654 488 633 467 654 b 342 592 369 654 343 633 z m 447 453 b 315 361 360 431 315 400 b 372 286 315 311 335 286 b 447 297 397 286 422 290 l 447 183 b 340 156 421 165 385 156 b 128 340 199 156 128 217 b 447 569 128 465 235 542 z m 193 871 l 361 1006 l 496 1006 l 664 871 l 494 871 l 428 929 l 361 871 z m 867 -100 b 865 -96 865 -99 865 -97 z "},"ã":{"ha":828,"x_min":0,"x_max":0,"o":"m 146 833 l 201 760 b 128 593 153 719 128 671 l 129 561 l 164 492 b 96 346 118 451 96 403 b 131 208 96 300 107 254 l 240 -10 b 461 -118 276 -82 344 -118 b 599 -78 513 -118 558 -104 l 622 -108 l 872 -108 b 825 186 840 -46 825 51 l 825 276 b 826 350 825 308 826 333 b 722 629 826 435 774 524 b 769 743 754 654 769 692 l 633 1019 l 488 1019 l 485 994 l 472 986 b 329 1018 460 986 356 1018 b 143 833 206 1018 143 957 z m 157 592 b 431 786 157 721 249 786 b 676 601 594 786 676 725 b 674 379 676 453 675 379 b 699 164 676 260 685 188 l 513 164 b 488 250 496 188 488 215 l 488 593 b 424 654 488 633 467 654 b 342 592 369 654 343 633 z m 447 453 b 315 361 360 431 315 400 b 372 286 315 311 335 286 b 447 297 397 286 422 290 l 447 183 b 340 156 421 165 385 156 b 128 340 199 156 128 217 b 447 569 128 465 235 542 z m 175 864 b 329 988 175 946 226 988 b 472 956 356 988 443 956 b 519 989 504 956 519 967 l 617 989 b 464 865 617 907 565 865 b 321 897 436 865 343 897 b 274 864 289 897 274 886 z "},"ä":{"ha":828,"x_min":0,"x_max":0,"o":"m 867 -100 l 865 -96 b 825 186 836 -31 825 58 l 825 278 b 826 350 825 310 826 333 b 738 593 826 433 781 510 l 763 593 l 763 775 l 642 1022 l 200 1022 l 200 839 l 232 778 b 128 593 163 743 128 681 l 129 561 l 164 492 b 96 346 118 451 96 403 b 131 208 96 300 107 254 l 240 -10 b 461 -118 276 -82 344 -118 b 599 -78 513 -118 558 -104 l 622 -108 l 872 -108 b 865 -99 868 -104 867 -101 z m 157 592 b 431 786 157 721 249 786 b 676 601 594 786 676 725 b 674 379 676 453 675 379 b 699 164 676 261 685 189 l 513 164 b 488 250 496 188 488 215 l 488 593 b 424 654 488 633 467 654 b 342 592 369 654 343 633 z m 447 453 b 315 361 360 431 315 400 b 372 286 315 311 335 286 b 447 297 397 286 422 290 l 447 183 b 340 156 421 165 385 156 b 128 340 199 156 128 217 b 447 569 128 465 235 542 z m 460 993 l 610 993 l 610 871 l 460 871 z m 229 993 l 379 993 l 379 871 l 229 871 z "},"å":{"ha":828,"x_min":0,"x_max":0,"o":"m 128 561 l 164 492 b 96 346 118 451 96 403 b 131 208 96 300 107 254 l 240 -10 b 461 -118 276 -82 344 -118 b 600 -75 514 -118 560 -104 b 622 -108 607 -87 615 -99 l 872 -108 b 825 186 840 -46 825 51 l 825 276 b 826 350 825 308 826 333 b 694 682 826 432 761 557 b 642 760 674 721 656 747 l 551 940 b 419 1035 519 1003 475 1035 b 278 899 340 1035 278 974 b 308 804 278 869 288 839 b 128 593 188 779 128 708 z m 157 592 b 431 786 157 721 249 786 b 676 601 594 786 676 725 b 674 379 676 453 675 379 b 699 164 676 260 685 188 l 513 164 b 488 250 496 188 488 215 l 488 593 b 424 654 488 633 467 654 b 342 592 369 654 343 633 z m 447 453 b 315 361 360 431 315 400 b 372 286 315 311 335 286 b 447 297 397 286 422 290 l 447 183 b 340 156 421 165 385 156 b 128 340 199 156 128 217 b 447 569 128 465 235 542 z m 308 897 b 419 1004 308 957 357 1004 b 528 897 479 1004 528 957 b 419 790 528 836 479 790 b 308 897 357 790 308 835 z m 372 896 b 419 850 372 865 388 850 b 468 896 451 850 468 865 b 419 940 468 925 451 940 b 372 896 388 940 372 925 z "},"æ":{"ha":1146,"x_min":0,"x_max":0,"o":"m 128 561 l 164 492 b 96 346 118 451 96 403 b 131 208 96 300 107 254 l 240 -10 b 461 -118 276 -82 344 -118 b 654 -56 510 -118 575 -97 b 858 -124 706 -101 774 -124 l 858 -126 b 1167 122 1086 -111 1167 -40 l 1167 161 l 1163 171 l 1167 171 l 1167 329 b 1031 664 1167 429 1090 542 b 767 817 979 768 913 806 l 735 817 b 578 778 675 811 624 800 b 431 817 540 804 492 817 b 128 593 229 817 128 742 z m 157 592 b 431 786 157 721 249 786 b 576 743 496 786 544 772 b 735 786 622 769 675 785 l 735 654 b 676 596 696 649 676 629 l 676 535 l 735 535 l 735 446 l 676 446 l 676 346 b 735 282 676 307 696 286 l 735 149 l 725 149 b 486 429 558 149 486 217 l 486 526 b 424 654 486 611 465 654 b 342 592 369 654 343 633 z m 447 453 b 315 361 360 431 315 400 b 386 286 315 301 338 286 b 447 297 410 286 431 293 l 447 183 b 340 156 421 165 385 156 b 128 340 199 156 128 217 b 447 569 128 465 235 542 z m 767 786 b 1014 574 932 782 1014 711 l 1014 446 l 767 446 l 767 535 l 831 535 l 831 582 b 767 653 831 624 810 647 z m 767 282 b 831 379 810 289 831 321 l 1014 379 b 767 149 1014 232 932 156 z "},"ç":{"ha":786,"x_min":0,"x_max":0,"o":"m 382 817 b 100 576 194 804 100 724 l 100 372 b 244 10 100 265 178 136 l 203 -22 l 331 -265 l 626 -265 b 665 -172 653 -228 665 -197 b 644 -107 665 -160 658 -137 b 811 122 756 -75 811 1 l 811 329 b 763 503 811 372 794 431 l 678 664 b 407 817 626 768 553 806 z m 413 786 b 661 574 578 782 661 711 l 661 517 l 472 517 b 413 653 472 635 468 646 z m 131 576 b 375 786 131 711 213 782 l 375 653 b 318 582 338 647 318 624 l 318 361 b 375 282 318 315 338 289 l 375 185 l 406 185 l 413 181 l 413 282 b 472 419 464 293 472 308 l 661 419 b 458 153 661 236 608 175 b 513 71 494 121 513 93 b 488 8 513 53 504 32 l 297 8 b 367 79 343 42 367 65 b 314 156 367 97 349 124 b 131 372 192 176 131 249 z "},"è":{"ha":788,"x_min":0,"x_max":0,"o":"m 42 1036 l 171 788 l 200 768 b 100 576 133 728 100 664 l 100 372 b 139 228 99 328 113 283 l 225 47 b 503 -124 285 -71 358 -117 l 529 -124 b 811 122 717 -108 811 -26 l 811 329 b 678 664 811 419 742 542 b 542 792 644 728 599 771 l 521 839 l 365 1036 z m 143 1006 l 350 1006 l 458 871 l 349 871 z m 410 786 b 661 574 578 782 661 711 l 661 446 l 410 446 l 410 535 l 472 535 l 472 582 b 410 653 472 624 451 647 z m 410 282 b 472 379 451 289 472 321 l 661 379 b 410 149 661 232 578 156 z m 131 576 b 379 786 131 711 214 782 l 379 654 b 318 582 339 649 318 625 l 318 535 l 379 535 l 379 446 l 318 446 l 318 361 b 379 282 318 313 339 286 l 379 149 b 131 372 214 154 131 229 z "},"é":{"ha":788,"x_min":0,"x_max":0,"o":"m 363 1036 l 210 839 l 238 788 b 100 576 146 751 100 681 l 100 372 b 139 228 99 328 113 283 l 225 47 b 503 -124 285 -71 358 -117 l 529 -124 b 811 122 717 -108 811 -26 l 811 329 b 669 682 811 424 728 575 l 831 788 l 714 1036 z m 378 1006 l 610 1006 l 406 871 l 272 871 z m 410 786 b 661 574 578 782 661 711 l 661 446 l 410 446 l 410 535 l 472 535 l 472 582 b 410 653 472 624 451 647 z m 410 282 b 472 379 451 289 472 321 l 661 379 b 410 149 661 232 578 156 z m 131 576 b 379 786 131 711 214 782 l 379 654 b 318 582 339 649 318 625 l 318 535 l 379 535 l 379 446 l 318 446 l 318 361 b 379 282 318 313 339 286 l 379 149 b 131 372 214 154 131 229 z "},"ê":{"ha":788,"x_min":0,"x_max":0,"o":"m 72 839 l 139 714 b 100 576 113 679 100 633 l 100 372 b 225 46 100 283 169 154 b 503 -124 285 -72 356 -112 l 529 -124 b 811 122 717 -108 811 -26 l 811 329 b 711 593 811 411 760 500 l 833 593 l 711 839 l 472 1036 l 315 1036 z m 160 871 l 325 1006 l 463 1006 l 629 871 l 461 871 l 394 929 l 326 871 z m 410 786 b 661 574 578 782 661 711 l 661 446 l 410 446 l 410 535 l 472 535 l 472 582 b 410 653 472 624 451 647 z m 410 282 b 472 379 451 289 472 321 l 661 379 b 410 149 661 232 578 156 z m 131 576 b 379 786 131 711 214 782 l 379 654 b 318 582 339 649 318 625 l 318 535 l 379 535 l 379 446 l 318 446 l 318 361 b 379 282 318 313 339 286 l 379 149 b 131 372 214 154 131 229 z "},"ë":{"ha":788,"x_min":0,"x_max":0,"o":"m 178 1022 l 178 839 l 213 776 b 100 576 138 738 100 671 l 100 372 b 139 228 99 328 113 283 l 225 47 b 503 -124 285 -71 358 -117 l 503 -126 l 529 -126 l 529 -124 b 811 122 717 -108 811 -26 l 811 329 b 711 593 811 411 760 500 l 743 593 l 743 775 l 622 1022 z m 439 993 l 592 993 l 592 871 l 439 871 z m 210 993 l 358 993 l 358 871 l 210 871 z m 410 786 b 661 574 578 782 661 711 l 661 446 l 410 446 l 410 535 l 472 535 l 472 582 b 410 653 472 624 451 647 z m 410 282 b 472 379 451 289 472 321 l 661 379 b 410 149 661 232 578 156 z m 131 576 b 379 786 131 711 214 782 l 379 654 b 318 582 339 649 318 625 l 318 535 l 379 535 l 379 446 l 318 446 l 318 361 b 379 282 318 313 339 286 l 379 149 b 131 372 214 154 131 229 z "},"ì":{"ha":460,"x_min":0,"x_max":0,"o":"m -83 1036 l 43 788 l 107 746 l 107 132 l 232 -108 l 472 -108 l 472 553 l 451 593 l 513 593 l 394 839 l 238 1036 z m 17 1006 l 224 1006 l 331 871 l 221 871 z m 138 769 l 321 769 l 321 164 l 138 164 z "},"í":{"ha":460,"x_min":0,"x_max":0,"o":"m 218 1036 l 65 839 l 107 764 l 107 132 l 232 -108 l 472 -108 l 472 553 l 436 624 l 686 788 l 569 1036 z m 233 1006 l 468 1006 l 261 871 l 128 871 z m 138 769 l 321 769 l 321 164 l 138 164 z "},"î":{"ha":460,"x_min":0,"x_max":0,"o":"m -96 839 l 32 593 l 107 593 l 107 132 l 232 -108 l 472 -108 l 472 553 l 451 593 l 664 593 l 542 839 l 304 1036 l 146 1036 z m -10 871 l 156 1006 l 293 1006 l 460 871 l 292 871 l 225 929 l 157 871 z m 138 769 l 321 769 l 321 164 l 138 164 z "},"ï":{"ha":460,"x_min":0,"x_max":0,"o":"m 8 1022 l 8 839 l 107 649 l 107 132 l 232 -108 l 472 -108 l 472 553 l 451 593 l 574 593 l 574 775 l 453 1022 z m 269 993 l 421 993 l 421 871 l 269 871 z m 40 993 l 189 993 l 189 871 l 40 871 z m 138 769 l 321 769 l 321 164 l 138 164 z "},"ð":{"ha":879,"x_min":0,"x_max":0,"o":"m 419 1101 b 118 957 263 1101 163 1053 l 225 731 b 103 533 143 699 103 633 l 103 401 b 243 43 103 293 183 163 b 553 -128 310 -75 386 -117 l 578 -128 b 900 157 793 -115 900 -21 l 900 596 b 764 931 900 688 826 808 b 451 1101 710 1047 614 1101 z m 144 946 b 419 1071 188 1035 275 1071 l 419 922 b 307 849 375 915 336 893 z m 451 1071 b 747 840 649 1067 747 989 l 747 404 b 460 146 747 235 651 149 l 460 292 b 547 379 518 297 547 326 l 547 529 b 424 583 532 565 490 583 b 335 519 364 583 335 563 l 335 381 b 428 292 335 322 365 293 l 428 146 b 135 401 232 151 135 236 l 135 533 b 363 722 135 660 211 722 b 547 664 436 722 499 703 l 547 842 b 451 922 547 893 515 921 z "},"ñ":{"ha":800,"x_min":0,"x_max":0,"o":"m 107 801 l 107 132 l 232 -108 l 475 -108 l 475 75 l 567 -108 l 815 -108 l 815 364 b 775 496 804 399 803 442 l 710 622 b 769 747 750 649 769 690 l 636 1025 l 490 1025 b 485 997 490 1013 489 1004 l 468 990 b 331 1022 446 990 353 1022 b 144 839 207 1022 144 961 l 164 801 z m 175 868 b 329 993 175 951 226 993 b 472 961 356 993 446 961 b 519 993 504 961 519 972 l 618 993 b 464 868 618 910 567 868 b 321 900 438 868 347 900 b 274 868 289 900 274 889 z m 354 750 b 485 785 386 774 429 785 b 663 575 603 785 663 715 l 664 164 l 472 164 l 472 575 b 397 658 472 631 447 658 b 354 642 379 658 365 653 z m 138 769 l 322 769 l 322 164 l 138 164 z "},"ò":{"ha":792,"x_min":0,"x_max":0,"o":"m 51 1036 l 181 788 l 204 774 b 100 576 135 733 100 667 l 100 372 b 139 226 100 326 113 282 l 225 46 b 501 -124 285 -72 357 -112 l 536 -124 b 811 203 747 -106 811 -36 l 811 329 b 676 665 811 419 735 544 b 556 786 647 724 607 764 l 375 1036 z m 153 1006 l 361 1006 l 468 871 l 357 871 z m 410 786 b 661 574 578 783 661 713 l 661 371 b 410 149 661 229 578 156 l 410 282 b 472 361 451 289 472 315 l 472 582 b 410 653 472 624 451 647 z m 131 576 b 386 786 131 715 215 785 l 386 654 b 318 582 340 653 318 626 l 318 361 b 386 281 318 310 340 283 l 386 149 b 131 372 215 151 131 226 z "},"ó":{"ha":792,"x_min":0,"x_max":0,"o":"m 375 1036 l 224 839 l 250 793 b 100 576 150 758 100 686 l 100 372 b 139 226 100 326 113 282 l 225 46 b 501 -124 285 -72 357 -112 l 536 -124 b 811 201 743 -106 811 -37 l 811 329 b 672 676 811 421 735 549 l 843 788 l 728 1036 z m 390 1006 l 625 1006 l 419 871 l 285 871 z m 410 786 b 661 574 578 783 661 713 l 661 371 b 410 149 661 229 578 156 l 410 282 b 472 361 451 289 472 315 l 472 582 b 410 653 472 624 451 647 z m 131 576 b 386 786 131 715 215 785 l 386 654 b 318 582 340 653 318 626 l 318 361 b 386 281 318 310 340 283 l 386 149 b 131 372 215 151 131 226 z "},"ô":{"ha":792,"x_min":0,"x_max":0,"o":"m 160 871 l 325 1006 l 463 1006 l 629 871 l 461 871 l 394 929 l 326 871 z m 410 786 b 661 574 578 783 661 713 l 661 371 b 410 149 661 229 578 156 l 410 282 b 472 361 451 289 472 315 l 472 582 b 410 653 472 624 451 647 z m 131 576 b 386 786 131 715 215 785 l 386 654 b 318 582 340 653 318 626 l 318 361 b 386 281 318 310 340 283 l 386 149 b 131 372 215 151 131 226 z m 72 839 l 140 714 b 103 576 115 678 103 632 l 103 372 b 503 -122 103 63 221 -122 l 536 -122 b 811 106 714 -107 793 -50 l 811 329 b 711 593 811 411 760 500 l 833 593 l 711 839 l 472 1036 l 315 1036 z "},"õ":{"ha":792,"x_min":0,"x_max":0,"o":"m 143 839 l 181 760 b 100 576 126 717 100 656 l 100 372 b 226 43 100 275 171 157 b 501 -124 283 -75 360 -119 l 536 -124 b 811 136 726 -124 811 -43 l 811 346 l 776 492 l 699 618 b 767 747 744 646 767 689 l 646 989 l 646 994 l 615 1025 l 485 1025 b 481 997 485 1015 483 1006 l 464 990 b 325 1022 446 990 347 1022 b 139 839 201 1022 139 961 z m 171 868 b 324 993 171 951 222 993 b 468 961 351 993 439 961 b 515 993 500 961 515 972 l 614 993 b 460 868 614 910 563 868 b 315 900 431 868 343 900 b 269 868 285 900 269 889 z m 410 786 b 661 574 578 783 661 713 l 661 371 b 410 149 661 229 578 156 l 410 282 b 472 361 451 289 472 315 l 472 582 b 410 653 472 624 451 647 z m 131 576 b 386 786 131 715 215 785 l 386 654 b 318 582 340 653 318 626 l 318 361 b 386 281 318 310 340 283 l 386 149 b 131 372 215 151 131 226 z "},"ö":{"ha":792,"x_min":0,"x_max":0,"o":"m 436 993 l 588 993 l 588 871 l 436 871 z m 206 993 l 354 993 l 354 871 l 206 871 z m 410 786 b 661 574 578 783 661 713 l 661 371 b 410 149 661 229 578 156 l 410 282 b 472 361 451 289 472 315 l 472 582 b 410 653 472 624 451 647 z m 131 576 b 386 786 131 715 215 785 l 386 654 b 318 582 340 653 318 626 l 318 361 b 386 281 318 310 340 283 l 386 149 b 131 372 215 151 131 226 z m 175 1022 l 175 839 l 208 775 b 100 576 136 736 100 669 l 100 372 b 139 226 100 326 113 282 l 225 46 b 501 -124 285 -72 357 -112 l 536 -124 b 814 211 746 -108 814 -37 b 811 264 814 224 811 240 l 811 329 b 711 593 811 411 760 500 l 738 593 l 738 775 l 617 1022 z "},"÷":{"ha":639,"x_min":0,"x_max":0,"o":"m 192 900 l 192 686 l 107 686 l 107 532 l 188 378 l 188 310 l 313 67 l 567 67 l 567 289 l 653 289 l 653 439 l 569 604 l 569 654 l 450 900 z m 224 871 l 419 871 l 419 731 l 224 731 z m 138 656 l 501 656 l 501 561 l 138 561 z m 218 481 l 414 481 l 414 342 l 218 342 z "},"ø":{"ha":792,"x_min":0,"x_max":0,"o":"m 379 817 b 100 576 193 804 100 724 l 100 372 b 139 226 100 326 113 282 l 225 46 b 501 -124 285 -72 357 -112 l 536 -124 b 813 201 742 -106 813 -40 l 808 329 b 676 665 808 419 736 550 b 418 815 626 760 557 810 z m 131 576 b 386 786 131 715 215 785 l 386 654 b 318 582 340 653 318 626 l 318 349 b 321 333 318 346 319 340 l 469 608 b 410 653 463 632 442 647 l 410 786 b 661 574 578 783 661 713 l 661 371 b 410 149 661 229 578 156 l 410 282 b 472 361 451 289 472 315 l 472 565 l 333 307 b 386 281 346 292 363 282 l 386 149 b 131 372 215 151 131 226 z "},"ù":{"ha":799,"x_min":0,"x_max":0,"o":"m 78 1036 l 200 801 l 104 801 l 104 361 b 146 197 103 306 115 257 l 260 -29 b 436 -124 292 -92 351 -124 b 561 -96 474 -124 515 -114 l 569 -108 l 811 -108 l 811 553 l 693 801 l 576 801 l 399 1036 z m 178 1006 l 383 1006 l 493 871 l 382 871 z m 476 769 l 661 769 l 661 164 l 476 164 z m 135 769 l 325 769 l 325 358 b 401 275 325 303 350 275 b 444 292 414 275 429 281 l 444 185 b 314 149 410 161 365 149 b 135 358 197 149 138 218 z "},"ú":{"ha":799,"x_min":0,"x_max":0,"o":"m 104 801 l 104 381 b 146 197 104 313 118 251 l 260 -29 b 436 -124 292 -92 351 -124 b 561 -96 474 -124 515 -114 l 569 -108 l 811 -108 l 811 553 l 731 715 l 839 788 l 725 1036 l 372 1036 l 218 839 l 242 801 z m 388 1006 l 621 1006 l 415 871 l 282 871 z m 476 769 l 661 769 l 661 164 l 476 164 z m 135 769 l 325 769 l 325 358 b 401 275 325 303 350 275 b 444 292 414 275 429 281 l 444 185 b 314 149 410 161 365 149 b 135 358 197 149 138 218 z "},"û":{"ha":799,"x_min":0,"x_max":0,"o":"m 104 851 l 104 329 b 146 197 108 286 122 243 l 260 -29 b 436 -124 292 -92 351 -124 b 561 -96 474 -124 515 -114 l 569 -108 l 811 -108 l 811 629 l 725 839 l 486 1036 l 329 1036 z m 172 871 l 339 1006 l 476 1006 l 642 871 l 475 871 l 407 929 l 340 871 z m 476 769 l 661 769 l 661 164 l 476 164 z m 135 769 l 325 769 l 325 358 b 401 275 325 303 350 275 b 444 292 414 275 429 281 l 444 185 b 314 149 410 161 365 149 b 136 358 196 149 136 218 z "},"ü":{"ha":799,"x_min":0,"x_max":0,"o":"m 178 1022 l 178 839 l 200 801 l 104 801 l 104 410 b 146 197 104 325 117 254 l 260 -29 b 436 -124 292 -92 351 -124 b 561 -96 474 -124 515 -114 l 569 -108 l 811 -108 l 811 553 l 743 694 l 743 775 l 622 1022 z m 439 993 l 592 993 l 592 871 l 439 871 z m 210 993 l 358 993 l 358 871 l 210 871 z m 476 769 l 661 769 l 661 164 l 476 164 z m 135 769 l 325 769 l 325 358 b 401 275 325 303 350 275 b 444 292 414 275 429 281 l 444 185 b 314 149 410 161 365 149 b 135 358 194 149 135 218 z "},"ý":{"ha":804,"x_min":0,"x_max":0,"o":"m 81 801 l 299 185 b 249 135 297 156 281 139 l 169 135 l 169 -64 l 293 -307 b 396 -310 326 -308 361 -310 b 624 -169 506 -310 582 -262 l 864 556 l 769 743 l 839 788 l 722 1036 l 372 1036 l 218 839 l 242 801 z m 386 1006 l 621 1006 l 414 871 l 281 871 z m 517 771 l 701 771 l 508 169 l 438 435 z m 124 771 l 299 771 l 488 122 b 274 -35 453 18 381 -35 b 200 -33 258 -35 233 -35 l 200 104 b 331 188 307 104 326 126 z "},"þ":{"ha":746,"x_min":0,"x_max":0,"o":"m 107 1083 l 107 132 l 232 -108 l 475 -108 l 475 -8 b 768 240 664 -1 768 64 l 768 381 b 768 406 768 389 768 397 b 771 444 768 418 768 431 b 747 558 769 488 764 525 l 636 782 b 428 925 592 867 540 907 l 353 1083 z m 138 1051 l 322 1051 l 322 164 l 138 164 z m 369 904 b 622 556 610 897 622 782 b 369 265 622 335 557 272 l 369 397 b 435 476 413 404 435 431 l 435 699 b 369 768 435 739 413 763 z "},"ÿ":{"ha":804,"x_min":0,"x_max":0,"o":"m 175 1022 l 175 839 l 196 801 l 81 801 l 299 185 b 249 135 297 156 281 139 l 169 135 l 169 -64 l 293 -307 b 396 -310 326 -308 361 -310 b 624 -169 506 -310 582 -262 l 864 556 l 618 1022 z m 436 993 l 588 993 l 588 871 l 436 871 z m 206 993 l 356 993 l 356 871 l 206 871 z m 517 771 l 701 771 l 508 169 l 438 435 z m 124 771 l 299 771 l 488 122 b 274 -35 453 18 381 -35 b 200 -33 258 -35 233 -35 l 200 104 b 331 188 307 104 326 126 z "},"ı":{"ha":460,"x_min":0,"x_max":0,"o":"m 107 801 l 107 132 l 232 -108 l 472 -108 l 472 553 l 350 801 z m 138 769 l 321 769 l 321 164 l 138 164 z "},"Ł":{"ha":718,"x_min":0,"x_max":0,"o":"m 107 1083 l 107 614 l -35 539 l -22 488 l -18 488 l 103 244 l 107 244 l 107 132 l 232 -108 l 768 -108 l 768 96 l 647 338 l 647 343 l 493 343 l 493 419 l 674 517 b 540 811 672 544 540 810 l 493 811 l 493 835 l 372 1076 l 372 1083 z m 138 1051 l 342 1051 l 342 706 l 481 782 l 525 782 l 342 682 l 342 164 l 138 164 l 138 572 l 35 518 l -7 518 l 138 597 z m 381 313 l 617 313 l 617 164 l 381 164 z "},"ł":{"ha":461,"x_min":0,"x_max":0,"o":"m 107 1083 l 107 549 l -68 432 l -60 432 l 60 189 l 107 189 l 108 132 l 232 -108 l 475 -108 l 475 365 l 688 504 l 564 750 l 569 753 l 475 753 l 475 835 l 353 1076 l 353 1083 z m 138 1051 l 322 1051 l 322 650 l 431 722 l 467 722 l 322 629 l 322 164 l 138 164 l 138 508 l 71 464 l 35 464 l 138 529 z "},"Œ":{"ha":1171,"x_min":0,"x_max":0,"o":"m 432 1101 b 103 824 213 1088 103 994 l 103 415 b 354 -75 103 267 261 -21 b 557 -128 406 -104 472 -122 l 578 -128 b 714 -108 600 -128 688 -108 l 1207 -108 l 1207 100 l 1118 278 l 1192 278 l 1192 485 l 1118 629 l 1207 629 l 1207 835 l 1086 1076 l 1086 1083 l 608 1083 b 458 1101 592 1083 485 1101 z m 790 1051 l 1054 1051 l 1054 904 l 790 904 z m 790 699 l 1042 699 l 1042 551 l 790 551 z m 463 1071 b 604 1051 492 1071 593 1051 l 758 1051 b 764 818 758 1011 764 858 l 764 413 b 758 164 764 368 758 208 l 589 164 b 463 146 567 164 486 146 l 463 289 b 553 383 522 293 553 325 l 553 831 b 463 925 553 889 522 921 z m 790 317 l 1054 317 l 1054 164 l 790 164 z m 493 585 b 524 638 493 608 503 625 l 524 383 b 493 333 524 360 514 343 z m 132 824 b 428 1071 132 983 231 1065 l 428 925 b 340 831 369 921 340 889 l 340 383 b 428 289 340 324 369 293 l 428 146 b 132 415 231 153 132 242 z "},"œ":{"ha":1126,"x_min":0,"x_max":0,"o":"m 379 818 l 379 817 b 100 576 193 804 100 724 l 100 372 b 139 226 100 326 113 282 l 225 46 b 501 -124 285 -72 357 -112 l 536 -124 b 685 -92 596 -119 646 -110 b 840 -124 722 -110 774 -119 l 868 -124 b 1150 122 1053 -108 1150 -28 l 1150 329 b 1014 664 1150 422 1076 542 b 747 815 964 760 893 811 l 703 817 b 564 786 643 818 608 789 b 418 817 529 799 481 813 z m 747 786 b 997 574 921 782 997 713 l 997 446 l 747 446 l 747 535 l 811 535 l 811 582 b 747 653 811 624 790 647 z m 747 282 b 811 379 790 289 811 321 l 997 379 b 747 149 997 232 914 156 z m 410 786 b 564 753 471 785 524 775 b 715 786 601 775 654 785 l 715 654 b 661 601 676 649 661 633 l 661 535 l 715 535 l 715 446 l 658 446 l 658 339 b 715 282 658 306 678 286 l 715 149 b 561 185 653 153 600 163 b 410 149 521 164 471 151 l 410 282 b 469 332 443 286 463 303 l 469 608 b 410 653 461 632 442 647 z m 131 576 b 386 786 131 715 215 785 l 386 654 b 318 582 340 653 318 626 l 318 361 b 386 281 318 310 340 283 l 386 149 b 131 372 215 151 131 226 z "},"Š":{"ha":907,"x_min":0,"x_max":0,"o":"m 90 1265 l 97 1261 l 210 1035 b 113 840 144 993 113 928 b 154 704 113 806 126 760 b 281 456 232 547 275 465 l 92 456 b 242 50 92 317 172 182 b 556 -129 310 -81 390 -122 l 575 -129 b 933 126 814 -122 933 -37 b 800 447 933 196 865 326 b 747 535 776 492 763 519 l 928 535 b 796 942 928 642 858 797 l 839 1019 l 715 1263 l 721 1265 l 454 1265 l 406 1219 l 356 1265 z m 176 1236 l 343 1236 l 406 1176 l 467 1236 l 633 1236 l 468 1100 l 343 1100 z m 481 1067 b 775 810 671 1051 769 965 l 568 810 b 481 915 568 875 542 908 z m 431 917 b 340 835 371 915 340 888 b 657 574 340 800 444 724 b 782 372 740 514 782 446 b 481 144 782 224 682 149 l 481 299 b 581 364 547 299 581 321 b 432 517 581 386 531 438 b 251 649 428 521 368 560 b 143 839 179 703 143 765 b 431 1067 143 983 239 1060 z m 318 426 b 432 299 321 350 358 307 l 432 144 b 122 426 225 153 122 247 z "},"š":{"ha":815,"x_min":0,"x_max":0,"o":"m 100 1036 l 107 1031 l 228 788 l 235 783 b 115 601 156 747 115 686 b 192 414 115 547 157 481 l 90 414 b 224 56 90 297 168 178 b 517 -124 293 -72 365 -117 l 518 -128 l 549 -126 b 842 86 744 -117 842 -46 b 825 161 842 114 836 139 l 756 297 l 836 297 b 693 658 832 406 757 536 l 693 661 l 849 788 l 731 1036 l 464 1036 l 415 989 l 367 1036 z m 186 1006 l 354 1006 l 415 946 l 478 1006 l 646 1006 l 478 871 l 354 871 z m 428 786 b 685 572 596 782 682 710 l 508 572 b 428 653 508 621 482 647 z m 401 653 b 329 608 353 650 329 635 b 422 542 329 585 361 565 b 690 331 650 456 690 422 b 424 147 690 213 601 151 l 424 281 b 510 325 481 281 510 296 b 415 397 510 351 478 375 b 242 464 315 432 257 454 b 146 601 176 501 146 542 b 401 786 146 722 231 783 z m 301 383 b 396 282 301 324 333 289 l 396 147 b 121 383 214 153 122 232 z "},"Ÿ":{"ha":922,"x_min":0,"x_max":0,"o":"m 60 1083 l 331 490 l 331 132 l 333 132 l 454 -108 l 718 -108 l 718 285 l 981 835 l 860 1078 l 863 1083 l 775 1083 l 694 1247 l 694 1253 l 250 1253 l 250 1083 z m 511 1222 l 663 1222 l 663 1100 l 511 1100 z m 282 1222 l 431 1222 l 431 1100 l 282 1100 z m 600 1051 l 813 1051 l 567 539 l 567 164 l 361 164 l 361 478 z m 107 1051 l 321 1051 l 436 760 l 346 539 z "},"Ž":{"ha":839,"x_min":0,"x_max":0,"o":"m 126 1265 l 132 1261 l 221 1083 l 135 1083 l 135 864 l 138 864 l 260 621 l 286 621 l 121 350 l 104 350 l 104 132 l 228 -108 l 876 -108 l 876 104 l 756 350 l 690 350 l 857 621 l 876 621 l 876 835 l 810 968 l 874 1019 l 751 1263 l 756 1265 l 490 1265 l 440 1219 l 392 1265 z m 211 1236 l 381 1236 l 440 1176 l 503 1236 l 669 1236 l 503 1100 l 379 1100 z m 167 1051 l 726 1051 l 726 893 l 167 893 z m 475 865 l 699 865 l 383 350 l 157 350 z m 135 321 l 726 321 l 726 164 l 135 164 z "},"ž":{"ha":735,"x_min":0,"x_max":0,"o":"m 58 1036 l 65 1031 l 179 801 l 128 801 l 128 606 l 131 606 l 213 438 l 100 292 l 100 132 l 228 -108 l 768 -108 l 768 83 l 674 274 l 768 390 l 768 553 l 696 699 l 807 788 l 685 1033 l 689 1036 l 422 1036 l 374 989 l 324 1036 z m 144 1006 l 313 1006 l 374 946 l 435 1006 l 601 1006 l 436 871 l 313 871 z m 160 769 l 617 769 l 617 636 l 160 636 z m 392 610 l 589 610 l 358 322 l 163 322 z m 135 300 l 617 300 l 617 164 l 135 164 z "},"–":{"ha":915,"x_min":0,"x_max":0,"o":"m 107 508 l 107 357 l 232 113 l 922 113 l 922 261 l 803 503 l 803 508 z m 138 478 l 771 478 l 771 388 l 138 388 z "},"—":{"ha":1483,"x_min":0,"x_max":0,"o":"m 107 508 l 107 353 l 232 108 l 1494 108 l 1494 261 l 1371 503 l 1371 508 z m 138 478 l 1342 478 l 1342 383 l 138 383 z "},"‘":{"ha":440,"x_min":0,"x_max":0,"o":"m 210 1133 l 96 976 l 96 788 l 99 788 l 219 544 l 463 544 l 463 754 l 440 796 l 488 888 l 365 1131 l 369 1133 z m 225 1103 l 318 1103 l 250 971 l 313 971 l 313 819 l 128 819 l 128 965 z "},"’":{"ha":453,"x_min":0,"x_max":0,"o":"m 94 1106 l 94 893 l 118 851 l 68 747 l 194 503 l 349 503 l 472 672 l 472 858 l 350 1106 z m 124 1075 l 321 1075 l 321 929 l 210 778 l 118 778 l 185 924 l 124 924 z "},"‚":{"ha":440,"x_min":0,"x_max":0,"o":"m 107 347 l 107 132 l 128 96 l 81 0 l 206 -243 l 363 -243 l 472 -86 l 472 99 l 353 347 z m 138 315 l 322 315 l 322 169 l 225 32 l 131 32 l 197 164 l 138 164 z "},"“":{"ha":654,"x_min":0,"x_max":0,"o":"m 210 1133 l 96 976 l 96 788 l 99 788 l 219 544 l 685 544 l 685 754 l 663 796 l 710 888 l 588 1131 l 590 1133 l 429 1133 l 390 1079 l 365 1131 l 369 1133 z m 446 1103 l 540 1103 l 471 971 l 532 971 l 532 819 l 349 819 l 349 965 z m 225 1103 l 318 1103 l 250 971 l 313 971 l 313 819 l 128 819 l 128 965 z "},"”":{"ha":650,"x_min":0,"x_max":0,"o":"m 103 1106 l 103 892 l 122 856 l 75 761 l 79 761 l 201 517 l 357 517 l 390 564 l 414 517 l 569 517 l 682 674 l 682 858 l 561 1100 l 561 1106 z m 347 1075 l 529 1075 l 529 929 l 432 792 l 339 792 l 407 924 l 347 924 z m 132 1075 l 317 1075 l 317 929 l 219 792 l 126 792 l 193 924 l 132 924 z "},"„":{"ha":654,"x_min":0,"x_max":0,"o":"m 107 347 l 107 132 l 128 96 l 81 0 l 206 -243 l 363 -243 l 397 -193 l 421 -243 l 576 -243 l 689 -86 l 689 99 l 568 347 z m 353 315 l 536 315 l 536 169 l 439 32 l 346 32 l 414 164 l 353 164 z m 138 315 l 322 315 l 322 169 l 225 32 l 131 32 l 197 164 l 138 164 z "},"•":{"ha":793,"x_min":0,"x_max":0,"o":"m 631 771 b 397 933 576 879 499 933 b 147 686 264 933 147 819 b 361 251 147 565 299 303 b 519 193 407 213 450 193 b 767 439 657 193 767 306 b 631 771 767 521 697 649 z m 178 686 b 397 904 178 804 281 904 b 615 686 515 904 615 803 b 397 468 615 568 515 468 b 178 686 278 468 178 564 z "},"…":{"ha":1165,"x_min":0,"x_max":0,"o":"m 107 333 l 107 132 l 232 -108 l 486 -108 l 486 68 l 575 -108 l 831 -108 l 831 24 l 897 -108 l 1151 -108 l 1151 86 l 1029 333 l 771 333 l 771 201 l 710 333 l 451 333 l 451 156 l 365 333 z m 803 304 l 999 304 l 999 164 l 803 164 z m 481 304 l 678 304 l 678 164 l 481 164 z m 138 304 l 333 304 l 333 164 l 138 164 z "},"€":{"ha":915,"x_min":0,"x_max":0,"o":"m 40 769 l 40 463 l 261 56 b 588 -128 335 -81 414 -128 b 939 157 826 -128 939 -19 l 939 281 l 844 468 l 939 468 b 914 710 939 582 931 663 b 476 1108 801 929 785 1108 b 126 831 243 1108 126 997 l 126 769 z m 63 747 l 156 747 l 156 828 b 444 1071 156 981 251 1061 l 444 925 b 364 836 390 917 364 888 l 364 747 l 454 747 l 454 661 l 364 661 l 364 572 l 454 572 l 454 486 l 364 486 l 364 375 b 444 290 364 322 390 294 l 444 146 b 156 406 251 154 156 240 l 156 486 l 63 486 l 63 572 l 156 572 l 156 661 l 63 661 z m 486 289 b 581 407 549 292 581 331 b 576 496 581 426 576 478 l 788 496 l 788 403 b 486 146 788 238 688 151 z m 486 1071 b 788 825 688 1071 788 989 l 788 742 l 576 742 b 578 811 576 756 578 796 b 486 925 578 885 547 922 z "},"™":{"ha":1043,"x_min":0,"x_max":0,"o":"m 67 1083 l 67 946 l 172 742 l 172 576 l 297 333 l 458 333 l 458 553 l 567 333 l 721 333 l 721 415 l 761 333 l 851 333 l 868 386 l 896 333 l 1050 333 l 1050 835 l 929 1083 l 736 1083 l 701 942 b 633 1083 656 1032 633 1079 z m 581 1051 l 608 1051 l 686 746 l 761 1051 l 790 1051 l 790 851 l 707 608 l 661 608 l 581 856 z m 801 1051 l 899 1051 l 899 608 l 801 608 z m 472 1051 l 568 1051 l 568 608 l 472 608 z m 203 960 l 307 960 l 307 607 l 203 607 z m 97 1051 l 413 1051 l 413 978 l 97 978 z "},"−":{"ha":706,"x_min":0,"x_max":0,"o":"m 71 631 l 71 447 l 196 203 l 756 203 l 756 383 l 633 631 z m 103 600 l 604 600 l 604 478 l 103 478 z "}}}
